<?xml version="1.0" encoding="UTF-8" standalone="no"?>
<!-- Created with Inkscape (http://www.inkscape.org/) -->

<svg
   width="207.53033mm"
   height="45.916306mm"
   viewBox="0 0 207.53033 45.916306"
   version="1.1"
   id="svg5"
   xml:space="preserve"
   inkscape:version="1.2.2 (b0a8486541, 2022-12-01)"
   sodipodi:docname="amiticia-image.svg"
   xmlns:inkscape="http://www.inkscape.org/namespaces/inkscape"
   xmlns:sodipodi="http://sodipodi.sourceforge.net/DTD/sodipodi-0.dtd"
   xmlns="http://www.w3.org/2000/svg"
   xmlns:svg="http://www.w3.org/2000/svg"><sodipodi:namedview
     id="namedview7"
     pagecolor="#000000"
     bordercolor="#000000"
     borderopacity="0.25"
     inkscape:showpageshadow="2"
     inkscape:pageopacity="0"
     inkscape:pagecheckerboard="0"
     inkscape:deskcolor="#d1a46a"
     inkscape:document-units="mm"
     showgrid="false"
     inkscape:zoom="0.77326038"
     inkscape:cx="429.35085"
     inkscape:cy="596.82354"
     inkscape:window-width="1874"
     inkscape:window-height="1011"
     inkscape:window-x="1920"
     inkscape:window-y="32"
     inkscape:window-maximized="1"
     inkscape:current-layer="layer1" /><defs
     id="defs2" /><g
     inkscape:label="Layer 1"
     inkscape:groupmode="layer"
     id="layer1"
     transform="translate(2.1850617,-181.2785)"><path
       style="fill:#ffffff;fill-opacity:0.7;stroke:#ffffff;stroke-width:0.264583;stroke-opacity:0.7"
       d="m 187.88277,226.90978 c -4.51602,-1.1671 -6.92222,-5.92504 -5.11774,-10.11966 l 0.57079,-1.32685 -1.19017,-1.19017 -1.19018,-1.19018 -0.98797,0.67046 c -1.57694,1.07014 -3.78106,1.76915 -5.95213,1.88766 l -2.00313,0.10935 -0.33848,1.33599 -0.33847,1.33599 0.92085,0.92084 c 2.89465,2.89466 0.98388,7.53921 -3.10165,7.53921 -1.5632,0 -2.58624,-0.50257 -3.52295,-1.73067 -1.90208,-2.49375 -0.48555,-6.25259 2.60455,-6.91136 0.56484,-0.12041 0.77914,-0.36803 0.96427,-1.11421 0.53622,-2.1613 0.60821,-1.98612 -1.20175,-2.92453 -1.64235,-0.85153 -3.57139,-2.68123 -4.52022,-4.28748 l -0.44825,-0.75883 -11.1216,-0.003 -11.1216,-0.003 -1.26551,-1.44301 -1.26551,-1.443 -2.83553,-0.075 -2.83553,-0.075 -0.0837,-0.72761 -0.0837,-0.7276 h 3.13546 3.13547 l 1.43713,1.45521 1.43713,1.45521 h 11.57185 11.57185 l 0.77783,1.13053 c 3.50225,5.09035 9.97244,6.04329 14.34424,2.11266 1.26267,-1.13524 1.32238,-1.24164 0.8044,-1.43325 -0.30773,-0.11384 -0.69672,-0.50812 -0.86442,-0.87617 -0.2763,-0.60641 -0.45217,-0.66919 -1.8747,-0.66919 -1.38849,0 -1.58715,-0.0663 -1.72001,-0.57439 -0.12603,-0.48194 -0.24739,-0.35418 -0.754,0.79375 -0.5999,1.35929 -0.61161,1.36814 -1.8094,1.36814 -0.76034,0 -1.2056,-0.11709 -1.2056,-0.31704 0,-0.31071 2.98818,-7.82137 3.48431,-8.75766 0.20584,-0.38847 0.52725,-0.46128 1.75206,-0.39688 l 1.49997,0.0789 1.75617,4.10104 c 1.5985,3.73285 1.82268,4.11292 2.49698,4.23334 1.01874,0.18192 1.03846,0.47435 0.12485,1.85165 l -0.7895,1.19019 1.17865,1.17865 1.17865,1.17865 1.13341,-0.64905 c 0.9466,-0.54208 1.48226,-0.6483 3.25007,-0.64447 2.43933,0.005 3.60236,0.48642 5.21105,2.15581 2.7293,2.83231 2.7879,7.32278 0.13179,10.10021 -1.65867,1.73444 -4.82015,2.7319 -6.93034,2.18655 z m 4.56108,-1.12146 c 1.39057,-0.66673 3.14979,-2.62498 3.5041,-3.90053 0.67968,-2.44689 0.1972,-4.73024 -1.3775,-6.5192 -1.33831,-1.5204 -3.30386,-2.50751 -4.96789,-2.49489 -1.1086,0.008 -1.6691,0.16263 -3.90128,1.07341 -0.84481,0.34471 -0.87979,0.32942 -2.18281,-0.95401 -0.72833,-0.71738 -1.32424,-1.40442 -1.32424,-1.52675 0,-0.12233 0.29766,-0.66046 0.66146,-1.19584 0.82552,-1.21487 0.82321,-1.27025 -0.0662,-1.58773 -0.57894,-0.20667 -0.88567,-0.65795 -1.50124,-2.2087 -0.42551,-1.07192 -1.22149,-2.93122 -1.76885,-4.13176 -0.97096,-2.12966 -1.01778,-2.18282 -1.92272,-2.18282 -0.51014,0 -1.02384,0.14883 -1.14157,0.33073 -0.11773,0.1819 -0.94969,2.11667 -1.84879,4.29948 l -1.63474,3.96875 0.67478,0.0868 c 0.37113,0.0478 0.76977,-0.0118 0.88587,-0.13229 0.11609,-0.12052 0.76882,-1.61811 1.4505,-3.32798 0.68168,-1.70986 1.38975,-3.10885 1.57349,-3.10885 0.36384,0 1.46296,2.41189 1.46296,3.21028 0,0.3871 -0.19822,0.49389 -0.91673,0.49389 -0.63556,0 -1.00074,0.15697 -1.19063,0.51177 -0.42082,0.78632 -0.38082,0.81114 1.30682,0.81114 1.48873,0 1.60458,0.0462 1.99116,0.79375 0.2458,0.47532 0.62003,0.79375 0.93284,0.79375 0.29509,0 0.52237,0.17817 0.52237,0.40948 0,0.63921 -2.37153,2.84462 -3.83646,3.56772 -1.16394,0.57454 -1.67266,0.65301 -4.23333,0.65301 -2.43202,0 -3.11557,-0.0948 -4.15852,-0.5766 -1.49219,-0.68936 -3.62766,-2.62336 -4.32365,-3.91574 l -0.50171,-0.93162 h -11.65668 -11.65668 l -1.43713,-1.4552 -1.43713,-1.45521 h -2.72102 c -1.63762,0 -2.72102,0.10534 -2.72102,0.26458 0,0.15939 1.09172,0.26458 2.74599,0.26458 h 2.74598 l 1.24322,1.45521 1.24323,1.45521 h 11.17977 11.17977 l 0.83105,1.28253 c 1.14812,1.77184 2.99496,3.40655 4.70103,4.16106 0.78991,0.34933 1.43197,0.72595 1.42679,0.83693 -0.0196,0.41878 -0.73325,3.21236 -0.88228,3.45349 -0.0856,0.1385 -0.51478,0.32364 -0.95374,0.41143 -1.21163,0.24233 -2.09622,0.93504 -2.69642,2.11153 -1.32054,2.58848 0.52694,5.4667 3.51055,5.46912 1.64706,0.001 2.85085,-0.8347 3.51731,-2.44281 0.45494,-1.09772 0.47512,-1.37069 0.17531,-2.37139 -0.19117,-0.63803 -0.74048,-1.50968 -1.26048,-2.0001 l -0.92166,-0.86924 0.32364,-1.38325 c 0.49193,-2.10256 0.48185,-2.09434 2.66337,-2.17085 2.21604,-0.0777 4.04459,-0.62807 5.8174,-1.75092 0.66758,-0.42283 1.32649,-0.76878 1.46425,-0.76878 0.13775,0 0.87594,0.63336 1.64043,1.40746 l 1.38997,1.40746 -0.66882,1.43681 c -1.31174,2.81797 -0.62626,5.99261 1.7293,8.00888 2.09273,1.7913 4.80537,2.1371 7.31716,0.93279 z m -4.07418,-0.74745 c -4.01164,-0.95256 -5.63208,-5.83638 -2.95003,-8.89106 1.15962,-1.32074 2.20508,-1.78885 4.05063,-1.81371 3.07928,-0.0415 5.42396,2.2854 5.42396,5.38277 0,3.44934 -3.24926,6.09971 -6.52456,5.322 z m 3.37643,-0.95842 c 1.06058,-0.5362 2.30885,-2.11221 2.50621,-3.16426 0.6256,-3.33474 -1.52695,-6.06463 -4.78204,-6.06463 -2.5828,0 -4.44653,1.61913 -4.79566,4.16626 -0.53631,3.91285 3.55382,6.84106 7.07149,5.06263 z m -24.38889,0.17449 c -0.57259,-0.57259 -0.7734,-1.02441 -0.7734,-1.74014 0,-1.89952 2.26733,-3.15954 4.00855,-2.22767 0.73168,0.39159 1.35257,1.97062 1.14552,2.91331 -0.40735,1.85465 -2.96488,2.4703 -4.38067,1.0545 z m 3.46141,-0.4792 c 1.57269,-1.99935 -1.25281,-4.39928 -3.05621,-2.59589 -0.79367,0.79367 -0.8285,1.69739 -0.10106,2.62218 0.78506,0.99804 2.36186,0.98491 3.15727,-0.0263 z m 6.95892,-18.32657 c 0.50463,0 0.72677,-0.11374 0.64593,-0.33073 -0.0678,-0.1819 -0.28259,-0.77603 -0.47738,-1.32028 l -0.35418,-0.98956 -0.60925,1.49752 c -0.69575,1.7101 -0.7343,1.90308 -0.29176,1.46055 0.17462,-0.17462 0.66361,-0.3175 1.08664,-0.3175 z m -24.4802,14.8372 c -1.56338,-0.99147 -2.61937,-2.74588 -2.67767,-4.44864 l -0.0432,-1.26043 1.12448,-0.0814 c 1.05438,-0.0763 1.12448,-0.0386 1.12448,0.60381 0,3.28888 4.15645,4.92167 6.23636,2.44984 0.92367,-1.09772 0.9018,-3.02078 -0.0472,-4.14858 -0.3795,-0.45101 -0.92627,-0.94647 -1.21504,-1.10101 -0.43265,-0.23155 -10.43652,-0.32984 -14.33331,-0.14083 -0.91805,0.0445 -1.49659,-0.6627 -1.08104,-1.32149 0.24406,-0.38691 1.14488,-0.42686 8.57685,-0.38037 9.35865,0.0585 8.87825,-0.0439 10.41853,2.22264 0.68299,1.00505 0.74168,1.2734 0.65716,3.00515 -0.078,1.59804 -0.2188,2.08046 -0.88224,3.0224 -1.12761,1.60094 -2.68615,2.35209 -4.88031,2.35209 -1.48918,0 -1.9455,-0.11849 -2.97791,-0.77322 z m 5.48127,-0.22206 c 2.67916,-1.32128 3.6481,-4.48517 2.15425,-7.03424 -1.20169,-2.05054 -0.89461,-1.98697 -10.03247,-2.07685 -6.70506,-0.0659 -8.12992,-0.0174 -8.0698,0.27514 0.0592,0.28813 1.47876,0.34855 7.51424,0.31983 l 7.44123,-0.0354 0.8365,0.70387 c 1.11764,0.94043 1.61146,1.96461 1.61026,3.33968 -0.002,2.20422 -1.5219,3.65116 -3.83546,3.65116 -2.11259,0 -3.69434,-1.30046 -4.0196,-3.30477 -0.12522,-0.77162 -0.2616,-0.92856 -0.80697,-0.92856 -0.61399,0 -0.6444,0.0634 -0.47186,0.98304 0.34802,1.85516 1.29333,3.27494 2.65197,3.9831 1.66209,0.86633 3.43389,0.91003 5.02771,0.124 z m -66.63518,-2.97745 c -3.09935,-0.54173 -5.977837,-2.87627 -7.037054,-5.70729 -0.746162,-1.9943 -0.742034,-5.11503 0.0094,-7.12348 0.674441,-1.80261 2.71568,-3.97574 4.606565,-4.90421 1.171786,-0.57538 1.670513,-0.64958 4.365625,-0.64958 2.698005,0 3.191035,0.0735 4.352015,0.64914 1.49525,0.74134 3.320899,2.49561 3.320899,3.19107 0,0.28334 -0.72434,0.96404 -1.829059,1.71886 l -1.82906,1.24974 -1.01521,-0.80265 c -2.448405,-1.93576 -5.291594,-1.4509 -6.634397,1.13139 -0.534358,1.0276 -0.523465,3.23785 0.02114,4.29101 1.231974,2.38237 4.450462,2.84877 6.552657,0.94955 l 1.00657,-0.90937 1.86368,1.2056 c 1.025019,0.66308 1.863669,1.38926 1.863669,1.61373 0,0.22447 -0.47655,0.92512 -1.059,1.557 -1.889739,2.05013 -5.399664,3.0916 -8.558468,2.53949 z m 5.177821,-0.94632 c 1.13163,-0.37143 3.910479,-2.50719 3.910479,-3.00551 0,-0.11143 -0.67642,-0.65173 -1.503159,-1.20065 -1.20744,-0.80169 -1.58482,-0.93844 -1.91823,-0.6951 -1.29913,0.94819 -2.095779,1.36972 -2.862455,1.51461 -1.910831,0.36111 -3.98187,-0.60614 -4.867909,-2.27351 -0.734637,-1.38245 -0.676556,-4.14682 0.111704,-5.31651 1.709113,-2.53616 4.693405,-2.82434 7.61866,-0.73572 0.33031,0.23584 0.722,0.0926 1.91823,-0.70169 0.826739,-0.54892 1.503159,-1.10025 1.503159,-1.22517 0,-0.58902 -2.188629,-2.33269 -3.582629,-2.85425 -2.068619,-0.77397 -5.024491,-0.78487 -7.052753,-0.026 -6.748171,2.52482 -7.55954,12.15611 -1.331539,15.80596 2.380564,1.3951 5.215047,1.64615 8.056442,0.71354 z m -29.427726,0.27389 c -0.655238,-0.36494 -1.488676,-1.09702 -1.852084,-1.62684 -0.640135,-0.93326 -0.663297,-1.12279 -0.742614,-6.07691 l -0.08187,-5.11359 h -1.302152 c -1.567929,0 -1.712981,-0.3038 -1.39138,-2.91408 l 0.211436,-1.71613 1.256771,-0.0806 1.256771,-0.0807 v -2.10217 -2.10217 h 2.645833 2.645833 v 2.10508 2.10507 l 1.918229,0.0777 1.918229,0.0777 v 2.24896 2.24896 l -1.918229,0.0777 -1.918229,0.0777 v 3.76599 c 0,4.73188 0.163066,5.08185 2.246564,4.82153 l 1.385954,-0.17316 0.432699,1.72258 c 0.237985,0.94742 0.4327,1.85277 0.4327,2.01188 0,0.60544 -2.206937,1.31014 -4.101042,1.3095 -1.483249,-5.3e-4 -2.089335,-0.13277 -3.043422,-0.66416 z m 5.319045,-0.15345 c 0.494657,-0.16538 0.979842,-0.37374 1.078188,-0.46302 0.09835,-0.0893 0.02945,-0.81717 -0.153109,-1.61754 l -0.331917,-1.45521 -1.309177,0.0861 c -1.074973,0.0707 -1.402572,-0.017 -1.831266,-0.49017 -0.474385,-0.52362 -0.522092,-0.96666 -0.522092,-4.84861 v -4.27233 l 1.918229,-0.0777 1.918229,-0.0777 v -1.8289 -1.8289 l -1.918229,-0.0777 -1.918229,-0.0777 -0.07727,-2.05052 -0.07728,-2.05052 H 67.89424 65.799833 l -0.07728,2.05052 -0.07727,2.05052 -1.322917,0.13229 -1.322917,0.1323 v 1.71979 1.71979 l 1.322917,0.13229 1.322917,0.13229 0.132291,5.15938 c 0.08223,3.20701 0.248828,5.35961 0.440251,5.68854 0.457909,0.78682 1.718384,1.91812 2.470166,2.21701 0.910508,0.36201 3.436323,0.35968 4.524581,-0.004 z m -75.0807706,-0.16233 c 0.084537,-0.40018 2.17533711,-5.6687 4.6462216,-11.70781 l 4.492517,-10.98021 3.285634,-0.0738 c 2.424216,-0.0544 3.356483,0.0149 3.55587,0.26458 0.148633,0.18609 1.942973,4.50553 3.987427,9.59876 2.044454,5.09323 4.082158,10.13699 4.52823,11.20837 0.446072,1.07137 0.745718,2.05363 0.665882,2.18281 -0.07983,0.12917 -1.430761,0.23486 -3.00206,0.23486 h -2.856905 l -0.811514,-2.05052 -0.811517,-2.05052 -4.385754,-0.0725 c -5.0823754,-0.0841 -4.819156,0.13242 -3.611255,-2.97017 l 0.772558,-1.98437 2.533762,-0.0757 c 1.393568,-0.0417 2.533761,-0.18033 2.533761,-0.30818 0,-0.23187 -2.107853,-5.82945 -2.725356,-7.2374 -0.344099,-0.78458 -0.572445,-0.25752 -6.0243656,13.90516 l -1.094901,2.84427 H 0.89406441 -2.0219055 Z m 5.93447,-1.45544 c 2.3480902,-6.49147 6.3236146,-16.0756 6.6420146,-16.01247 0.198506,0.0393 0.599244,0.7264 0.890529,1.52676 0.291288,0.80037 1.051901,2.80556 1.690253,4.45599 0.638353,1.65042 1.093791,3.10894 1.012085,3.24114 -0.08171,0.13221 -1.310138,0.24037 -2.729847,0.24037 H 8.990017 l -0.644243,1.77504 c -0.354333,0.97628 -0.682932,1.86625 -0.73022,1.97773 -0.04729,0.11148 1.857712,0.23544 4.233332,0.27548 l 4.319313,0.0728 0.79375,2.04468 0.79375,2.04469 2.447395,0.006 c 1.346068,0.003 2.447171,-0.0835 2.446899,-0.1926 -2.65e-4,-0.10914 -2.002187,-5.13953 -4.448696,-11.17865 l -4.448196,-10.98019 -3.025783,-0.0719 -3.025786,-0.0719 -4.2191905,10.39066 c -2.3205548,5.71487 -4.37598069,10.77762 -4.5676131,11.25056 l -0.3484229,0.8599 2.4509465,-2.4e-4 2.4509465,-2.4e-4 z m 20.4197116,0.13252 c -0.0091,-1.12778 -0.0024,-4.13411 0.01508,-6.68073 0.03011,-4.40216 0.06349,-4.68463 0.677788,-5.7352 1.464728,-2.505 4.06718,-3.7898 7.67652,-3.7898 2.413696,0 3.56612,0.337 5.066832,1.48164 l 0.880406,0.67152 0.777034,-0.65383 c 1.403479,-1.18095 2.907675,-1.57776 5.485947,-1.44719 2.671522,0.13529 4.000783,0.68218 5.325618,2.19108 1.663443,1.89456 1.730549,2.25575 1.746157,9.39845 l 0.01415,6.48229 -2.711979,0.0754 -2.711979,0.0754 -0.01492,-5.36707 c -0.01744,-6.26942 -0.172368,-6.9876 -1.664557,-7.71631 -0.857777,-0.4189 -1.173779,-0.4505 -2.007444,-0.20073 -1.950141,0.58428 -1.985616,0.7052 -2.133899,7.2734 l -0.132292,5.8599 H 38.12861 35.482776 l -0.132926,-5.82083 c -0.07311,-3.20146 -0.236366,-6.0336 -0.362792,-6.29364 -0.295613,-0.60804 -1.532879,-1.24699 -2.414698,-1.24699 -1.089303,0 -2.164747,0.70068 -2.484856,1.61895 -0.17836,0.51164 -0.293269,3.00283 -0.293269,6.35804 v 5.51676 h -2.645833 -2.645834 l -0.01659,-2.05052 z m 4.779092,-3.60494 c 0,-2.81947 0.07408,-5.49669 0.164613,-5.94937 0.535096,-2.67549 4.672857,-3.25501 5.959772,-0.83471 0.431874,0.81222 0.490198,1.57563 0.490198,6.41615 v 5.49423 h 2.248959 2.248958 v -5.51713 c 0,-5.30908 0.02281,-5.55102 0.604986,-6.41614 1.14541,-1.70211 3.732688,-1.9446 5.190786,-0.4865 0.995831,0.99582 1.083394,1.59601 1.083394,7.42576 v 4.99401 h 2.270274 2.270275 l -0.09623,-6.15157 c -0.110236,-7.04661 -0.26453,-7.70399 -2.210157,-9.4166 -1.375725,-1.21096 -2.646042,-1.62975 -4.943567,-1.62975 -1.958176,0 -3.514993,0.46922 -4.794261,1.44496 -1.055301,0.80492 -1.272045,0.82431 -1.866897,0.16701 -0.848477,-0.93756 -2.975909,-1.64918 -4.912019,-1.64306 -0.987742,0.003 -2.137063,0.088 -2.554049,0.18852 -1.340443,0.32329 -3.182938,1.38049 -3.908298,2.24253 -1.524029,1.81121 -1.572771,2.05211 -1.676519,8.28648 -0.05301,3.1854 -0.03423,5.9536 0.04173,6.15156 0.1006,0.26216 0.715269,0.35992 2.263084,0.35992 h 2.124969 z m 25.893866,5.06015 c -0.05335,-0.32742 -0.03746,-4.34578 0.0353,-8.92969 l 0.132292,-8.33437 h 2.513542 2.513541 l 0.06967,8.92969 0.06967,8.92968 h -2.618507 c -2.510364,0 -2.622516,-0.0246 -2.715498,-0.59531 z m 4.7978,-8.40052 v -8.46667 h -2.116666 -2.116667 v 7.23912 c 0,3.98151 -0.07572,7.79151 -0.168254,8.46666 l -0.168256,1.22756 h 2.284923 2.28492 z m 16.99596,0.0661 0.06967,-8.92969 h 2.513541 2.513542 l 0.06967,8.92969 0.06966,8.92968 H 79.535911 76.88304 Z m 4.793011,7.01145 c 0.216512,-1.80255 0.221404,-13.64083 0.0061,-14.71744 l -0.16537,-0.82683 h -2.083594 -2.083593 v 8.46667 8.46667 h 2.079812 2.079813 z m 22.25649,1.59681 c -0.0718,-0.18702 -0.0994,-5.40019 -0.0614,-11.58483 l 0.0691,-11.24479 h 2.77812 2.77813 v 11.50938 11.50937 l -2.71671,0.0755 c -2.02512,0.0562 -2.74993,-0.0111 -2.8472,-0.26459 z m 5.16703,-11.32024 v -11.1125 h -2.38125 -2.38125 v 11.1125 11.1125 h 2.38125 2.38125 z m 1.46998,11.40098 c -0.0818,-0.13237 0.10146,-0.81698 0.40727,-1.52135 0.30581,-0.70437 2.39432,-5.73879 4.64114,-11.18759 2.24681,-5.44881 4.21422,-10.06248 4.37201,-10.25261 0.20665,-0.24899 1.16528,-0.34568 3.42726,-0.34568 3.66135,0 3.17205,-0.39114 4.9648,3.96875 l 1.25113,3.04271 4.39664,0.0724 4.39664,0.0725 1.38224,-1.46151 1.38223,-1.46151 h 11.23095 11.23094 l 1.62677,-1.47214 c 2.37276,-2.14723 4.46307,-3.06509 7.35598,-3.23004 l 2.32347,-0.13247 0.32504,-1.45243 c 0.32145,-1.43643 0.31712,-1.4582 -0.39338,-1.97576 -1.01971,-0.7428 -1.49736,-1.82065 -1.49736,-3.37883 0,-1.63275 0.48757,-2.64995 1.7212,-3.59088 3.47205,-2.64827 8.34629,1.20357 6.65259,5.25716 -0.45217,1.08218 -2.01079,2.46404 -3.03228,2.6884 -0.58743,0.12902 -0.82062,0.35912 -0.9329,0.92051 -0.0823,0.41167 -0.22589,1.05206 -0.31901,1.42308 -0.14929,0.59483 -0.0335,0.74341 0.9794,1.2567 0.63179,0.32017 1.59217,0.93107 2.13417,1.35757 1.10067,0.8661 1.00043,0.89247 3.21634,-0.84587 1.38843,-1.08919 1.5034,-1.25825 1.34947,-1.98437 -0.5827,-2.74871 -0.37248,-4.11172 0.90646,-5.87724 1.02124,-1.40978 2.76682,-2.2443 4.72958,-2.26111 6.20008,-0.0531 8.18706,8.35597 2.64771,11.20529 -1.36494,0.70209 -3.97913,0.68648 -5.31921,-0.0318 -1.12439,-0.60264 -1.0353,-0.634 -3.27635,1.15352 l -1.63971,1.30787 0.66792,1.31807 c 0.72306,1.42688 1.47298,4.51565 1.24231,5.11678 -0.088,0.2293 -0.52919,0.3717 -1.15164,0.3717 -0.92673,0 -1.02302,-0.0701 -1.18082,-0.8599 -0.76237,-3.8154 -2.54878,-6.40504 -5.37619,-7.7935 -1.31032,-0.64346 -1.81494,-0.73931 -3.89231,-0.73931 -2.16438,0 -2.5517,0.0812 -4.15608,0.87101 -1.02465,0.50443 -2.14653,1.31175 -2.66565,1.91823 l -0.89639,1.04722 h -11.8899 -11.88991 l -1.43118,1.44918 -1.43118,1.44918 -4.40403,0.0722 -4.40403,0.0722 1.92749,4.63021 1.9275,4.63021 1.64092,0.0798 c 0.90766,0.0441 1.76525,-0.0445 1.91915,-0.19844 0.47001,-0.47001 1.71592,-0.32562 2.01517,0.23354 0.43238,0.80791 0.32534,1.2944 -0.38757,1.76152 -0.60956,0.3994 -0.71262,0.39988 -1.31361,0.006 -0.72759,-0.47675 -3.05201,-0.58743 -3.05201,-0.14534 0,0.15509 0.11543,0.49766 0.25651,0.76128 0.23051,0.43071 0.70924,0.48386 4.7225,0.52433 2.89666,0.0292 4.70071,-0.0619 5.13397,-0.25934 1.27978,-0.5831 2.44301,0.8466 1.47577,1.81384 -0.38513,0.38512 -1.44085,0.41864 -1.66688,0.0529 -0.0979,-0.15835 -1.84454,-0.26458 -4.35038,-0.26458 -3.98736,0 -4.19356,0.0256 -4.32756,0.53804 -0.13253,0.50678 -0.3145,0.53368 -3.13177,0.46302 l -2.99107,-0.075 -0.82691,-1.98437 -0.82691,-1.98438 -4.40655,-0.0725 c -3.71897,-0.0612 -4.40656,-0.1348 -4.40656,-0.47156 0,-0.21945 0.36585,-1.34767 0.81299,-2.50714 l 0.81298,-2.10813 h 2.49431 c 1.80371,0 2.49431,-0.0905 2.49431,-0.32696 0,-0.17983 -0.67549,-2.07976 -1.50109,-4.22207 l -1.50109,-3.89512 -1.8933,4.81738 c -1.04131,2.64957 -2.5862,6.6331 -3.43309,8.85229 l -1.53978,4.03489 h -2.85542 c -1.57048,0 -2.92236,-0.1083 -3.00417,-0.24068 z m 5.87306,-1.2271 c 0.15843,-0.51623 1.68618,-4.50981 3.39499,-8.8746 2.27258,-5.80483 3.21141,-7.91525 3.49601,-7.85878 0.4385,0.087 3.86196,8.82247 3.61449,9.22289 -0.084,0.13586 -1.31426,0.24702 -2.73397,0.24702 h -2.58128 l -0.64425,1.77504 c -0.35433,0.97628 -0.68392,1.86924 -0.73243,1.98438 -0.0485,0.11513 1.8197,0.20933 4.15157,0.20933 3.06008,0 4.29933,0.0905 4.45382,0.3251 0.11773,0.1788 0.51695,1.10153 0.88714,2.05052 l 0.6731,1.72543 2.67244,0.0751 c 2.42786,0.0682 2.66893,0.0319 2.6342,-0.39688 -0.0347,-0.42775 0.24677,-0.47196 3.00446,-0.47196 1.67349,0 4.05474,0.0595 5.29167,0.13229 2.11667,0.12451 2.24896,0.10116 2.24896,-0.39688 0,-0.38488 -0.14429,-0.5029 -0.52917,-0.43286 -0.77156,0.14041 -1.90155,0.15653 -6.51634,0.093 l -4.13508,-0.057 -0.32682,-0.789 c -0.51856,-1.25192 -0.2223,-1.59225 1.38607,-1.59225 0.85449,0 1.6394,0.16443 2.00404,0.41984 0.47487,0.33261 0.6795,0.35336 0.98492,0.0999 0.52698,-0.43736 0.48385,-0.97765 -0.10313,-1.29179 -0.33198,-0.17767 -0.58186,-0.16828 -0.77944,0.0293 -0.33326,0.33325 -3.02992,0.58572 -3.90643,0.36573 -0.35989,-0.0903 -0.74507,-0.53207 -0.9957,-1.14191 -2.84374,-6.91943 -3.59567,-8.8887 -3.47101,-9.09041 0.0811,-0.13121 2.13878,-0.23857 4.57264,-0.23857 h 4.42519 l 1.43713,-1.45521 1.43714,-1.45521 h 11.84217 11.84219 l 1.21174,-1.21174 c 0.66646,-0.66646 1.88998,-1.52966 2.71894,-1.91823 1.30188,-0.61024 1.8496,-0.70648 4.02074,-0.70648 2.16887,0 2.71945,0.0965 4.01509,0.70389 3.01563,1.41368 5.26875,4.36393 5.67589,7.43204 0.15471,1.16587 0.22125,1.25677 0.91982,1.25677 0.70458,0 0.74321,-0.0554 0.60012,-0.85989 -0.33193,-1.86636 -0.70505,-3.03051 -1.35908,-4.24037 -0.41721,-0.77179 -0.58807,-1.35853 -0.43886,-1.5071 0.81102,-0.80763 3.98768,-3.18222 4.25708,-3.18222 0.17743,0 0.71637,0.22495 1.19763,0.49989 2.6779,1.52987 5.97653,0.40794 7.45998,-2.53727 0.58974,-1.17086 0.54526,-3.30716 -0.095,-4.56215 -2.08665,-4.09017 -7.64883,-4.0273 -9.67269,0.10933 -0.74417,1.52103 -0.74107,1.46028 -0.2368,4.63812 0.14128,0.89029 0.0747,0.98221 -1.72505,2.38125 -1.02961,0.80036 -2.03949,1.49178 -2.2442,1.53649 -0.20471,0.0447 -0.8893,-0.31248 -1.52132,-0.79375 -0.63203,-0.48127 -1.65402,-1.10148 -2.27109,-1.37824 -1.25497,-0.56287 -1.32036,-0.80884 -0.7746,-2.91374 0.3024,-1.16627 0.44381,-1.33721 1.37221,-1.65863 3.59418,-1.24434 4.07692,-5.63831 0.79403,-7.22753 -1.28904,-0.62401 -1.95553,-0.65891 -3.13912,-0.16437 -2.58539,1.08024 -3.14582,4.46432 -1.06441,6.42734 0.98838,0.93217 1.07316,1.45084 0.5332,3.26201 l -0.35496,1.19063 -2.40217,0.15376 c -2.95035,0.18885 -4.95287,1.07709 -7.37998,3.2735 l -1.62167,1.46753 H 152.77482 141.5626 l -1.43713,1.45521 -1.43713,1.4552 h -4.64807 -4.64806 l -1.44907,-3.50573 -1.44908,-3.50572 -2.98456,-0.0749 -2.98456,-0.0749 -0.64684,1.46262 c -0.99184,2.24274 -8.59221,20.72597 -8.59221,20.89529 0,0.0821 1.11112,0.14921 2.46915,0.14921 h 2.46915 z m 72.25459,-21.68963 c -1.44133,-0.78285 -2.26622,-2.93005 -1.7962,-4.67556 0.82044,-3.0469 4.5461,-3.97838 6.81949,-1.70499 0.77765,0.77765 0.94411,1.15426 1.04433,2.36274 0.22961,2.76883 -1.25484,4.43044 -3.94023,4.41046 -0.78319,-0.006 -1.74052,-0.18252 -2.12739,-0.39265 z m 3.80993,-0.43937 c 1.55211,-0.59488 2.2465,-3.00655 1.38712,-4.81756 -0.88353,-1.86191 -3.54852,-2.43094 -5.26248,-1.12364 -2.24599,1.7131 -1.66225,5.16943 1.03342,6.11888 1.05683,0.37223 1.47544,0.34606 2.84194,-0.17768 z m -16.61229,-5.62765 c -0.96072,-0.96072 -0.9052,-2.57509 0.12396,-3.60425 2.25726,-2.25726 5.62834,0.9919 3.56871,3.43963 -0.5762,0.68477 -0.87224,0.81405 -1.86411,0.81405 -0.89914,0 -1.33335,-0.15421 -1.82856,-0.64943 z m 3.57416,-0.91456 c 0.3317,-0.8008 0.15175,-1.95752 -0.37217,-2.39233 -0.71535,-0.59369 -1.85401,-0.59978 -2.59883,-0.0139 -1.30511,1.02659 -0.857,3.1673 0.73178,3.49586 0.89243,0.18456 1.91819,-0.31459 2.23922,-1.08963 z m -23.27895,28.5415 c -0.6073,-1.13475 0.44811,-2.19016 1.58286,-1.58286 0.59596,0.31895 0.71753,1.30865 0.22166,1.80452 -0.49587,0.49587 -1.48557,0.3743 -1.80452,-0.22166 z m 1.54322,-0.58916 c 0.10881,-0.56495 -0.71413,-0.93581 -1.01092,-0.45558 -0.30521,0.49384 -0.007,1.09527 0.49549,0.99854 0.23468,-0.0452 0.46663,-0.28953 0.51543,-0.54296 z m 45.42567,-4.42793 c -0.0954,-0.15433 -1.59024,-0.26458 -3.58749,-0.26458 h -3.42396 v -0.67479 -0.67479 l 3.3306,0.0429 c 2.14638,0.0277 3.4352,-0.0617 3.62479,-0.25126 0.72134,-0.72134 2.04044,-0.14182 2.04044,0.89644 0,0.30559 -0.14288,0.6985 -0.3175,0.87312 -0.38513,0.38513 -1.44085,0.41865 -1.66688,0.0529 z m 1.45521,-0.80205 c 0,-0.62405 -0.6997,-0.98533 -1.11125,-0.57378 -0.41154,0.41154 -0.0503,1.11125 0.57378,1.11125 0.36385,0 0.53747,-0.17362 0.53747,-0.53747 z m -3.04271,0.008 c 0.52481,-0.13354 -0.16995,-0.21258 -2.05052,-0.23328 -1.74066,-0.0192 -2.84427,0.0714 -2.84427,0.23328 0,0.30684 3.68893,0.30684 4.89479,0 z m -32.0297,-0.34089 c -0.072,-0.18748 -0.098,-2.30084 -0.0579,-4.69635 l 0.073,-4.35547 h 1.32292 1.32291 l -0.0634,4.23334 c -0.0349,2.32833 -0.0646,4.44169 -0.0661,4.69635 -0.002,0.37245 -0.23728,0.46302 -1.20167,0.46302 -0.73413,0 -1.24965,-0.13216 -1.32974,-0.34089 z m 2.13244,-1.04817 c 0.0863,-0.47294 0.12147,-2.40771 0.0781,-4.29948 l -0.0788,-3.43958 h -0.79375 -0.79375 l -0.0727,4.29947 -0.0727,4.29948 h 0.78831 c 0.68081,0 0.80972,-0.11727 0.94524,-0.85989 z m 16.38794,-0.32232 c -0.28248,-0.21365 -1.02789,-0.39224 -1.65647,-0.39687 -1.0319,-0.008 -1.13467,-0.0662 -1.05834,-0.60373 0.0712,-0.50103 0.29405,-0.61999 1.40747,-0.75115 0.7276,-0.0857 1.52197,-0.24371 1.76526,-0.35111 1.19492,-0.52746 2.05843,1.14822 1.05818,2.05344 -0.59488,0.53835 -0.85833,0.54694 -1.5161,0.0494 z m 1.47078,-1.10745 c 0,-0.50215 -0.75612,-0.76421 -1.12903,-0.3913 -0.16485,0.16484 -0.84145,0.31973 -1.50357,0.34419 l -1.20386,0.0445 1.04053,0.10667 c 0.57229,0.0587 1.27855,0.27338 1.56947,0.47715 0.58206,0.40769 1.22646,0.10233 1.22646,-0.58119 z m 4.30673,0.55952 c -0.25248,-0.18461 -0.35511,-0.48941 -0.25374,-0.75358 0.14827,-0.38638 0.57168,-0.43396 3.28414,-0.36899 3.00179,0.0719 3.11696,0.096 3.19846,0.6699 0.0465,0.32742 -0.013,0.59931 -0.13229,0.6042 -3.85386,0.15799 -5.7373,0.11117 -6.09657,-0.15153 z m 5.74744,-0.38652 c 0,-0.15969 -1.10764,-0.26459 -2.79374,-0.26459 -1.79512,0 -2.73529,0.0946 -2.63022,0.26459 0.0913,0.14768 1.32566,0.26458 2.79374,0.26458 1.57709,0 2.63022,-0.10594 2.63022,-0.26458 z m -48.53214,0.11339 c -0.58696,-0.58696 -0.51598,-1.33612 0.17226,-1.81818 0.73239,-0.51298 0.86093,-0.51262 1.37744,0.004 0.57476,0.57476 0.52323,1.62476 -0.096,1.95616 -0.69529,0.37211 -0.96615,0.34568 -1.4537,-0.14188 z m 1.38415,-0.81002 c 0.0444,-0.30944 -0.0946,-0.626 -0.31138,-0.70918 -0.50369,-0.19328 -1.06673,0.47983 -0.85749,1.02512 0.22557,0.58782 1.0721,0.359 1.16887,-0.31594 z m -10.43214,0.30848 c -0.35769,-0.93211 0.003,-1.03625 3.80418,-1.09917 2.97096,-0.0492 3.80097,0.0156 4.0502,0.31587 0.24229,0.29194 0.23867,0.46781 -0.0159,0.77457 -0.47955,0.57783 -7.61703,0.58578 -7.83846,0.009 z m 7.3093,-0.4056 c 0,-0.16282 -1.32292,-0.26459 -3.43959,-0.26459 -2.11666,0 -3.43958,0.10177 -3.43958,0.26459 0,0.16282 1.32292,0.26458 3.43958,0.26458 2.11667,0 3.43959,-0.10176 3.43959,-0.26458 z m 6.34465,-1.5975 c -0.64024,-1.19629 0.66108,-2.27569 1.94396,-1.61245 0.31621,0.16347 1.94415,0.32751 3.61764,0.36453 2.91569,0.0645 3.04618,0.0918 3.12603,0.65325 0.11566,0.8134 -0.74848,0.98323 -3.93902,0.77414 -1.63373,-0.10706 -2.65564,-0.0719 -2.75871,0.0948 -0.30241,0.4893 -1.68309,0.29899 -1.9899,-0.27429 z m 1.70972,-0.22964 c 0.0834,-0.13496 1.53484,-0.17574 3.32291,-0.0934 2.29663,0.10582 3.1748,0.0623 3.1748,-0.15724 0,-0.21135 -0.95936,-0.30351 -3.15938,-0.30351 -1.82086,0 -3.22867,-0.1121 -3.32291,-0.26459 -0.21531,-0.34837 -1.11289,-0.33983 -1.33075,0.0127 -0.28032,0.45357 0.0851,1.04566 0.64537,1.04566 0.28702,0 0.5885,-0.10784 0.66996,-0.23963 z m -10.02197,-2.12308 c -0.4156,-0.45922 -0.44746,-0.65992 -0.19334,-1.21766 0.37744,-0.8284 1.01965,-1.09664 1.66323,-0.69471 0.63628,0.39736 17.31904,0.43703 17.56333,0.0418 0.2607,-0.42182 1.07018,-0.30705 1.54649,0.21927 0.51441,0.56841 0.56845,1.39642 0.12039,1.84448 -0.38878,0.38878 -1.59414,0.4167 -1.96532,0.0455 -0.3145,-0.3145 -16.48609,-0.21199 -17.56832,0.11137 -0.50887,0.15204 -0.78787,0.0683 -1.16646,-0.35002 z m 1.57072,-0.28312 c 0.10357,-0.16757 3.30484,-0.26458 8.73125,-0.26458 5.42642,0 8.62768,0.097 8.73125,0.26458 0.25604,0.41428 1.18984,0.30993 1.3674,-0.1528 0.23073,-0.60128 -0.59983,-1.38206 -1.02155,-0.96034 -0.4308,0.4308 -17.18765,0.4578 -17.9889,0.029 -0.75689,-0.40507 -1.53933,0.31415 -1.02109,0.93859 0.38766,0.4671 0.96007,0.53645 1.20164,0.14557 z m 46.22271,-0.58208 c -0.43862,-0.43862 -0.39784,-1.40311 0.0759,-1.79631 0.99938,-0.82942 2.54979,0.72099 1.72037,1.72037 -0.3932,0.47378 -1.3577,0.51456 -1.79631,0.0759 z m 1.44678,-1.11719 c -0.20385,-0.53122 -0.93922,-0.54227 -1.14073,-0.0172 -0.0845,0.22014 -0.002,0.5833 0.18402,0.80703 0.2973,0.35823 0.38411,0.36028 0.72723,0.0172 0.21431,-0.2143 0.31757,-0.57747 0.22948,-0.80703 z m -9.3871,0.97751 c -0.72386,-0.0892 -0.86167,-0.20815 -0.79375,-0.68526 0.0782,-0.54918 0.22769,-0.581 3.06372,-0.65221 2.5895,-0.065 3.00392,-0.0165 3.15184,0.36899 0.38712,1.00881 -1.85028,1.40847 -5.42181,0.96848 z m 4.84469,-0.60115 c 0.10488,-0.16969 -0.791,-0.26459 -2.49792,-0.26459 -1.59791,0 -2.66145,0.10573 -2.66145,0.26459 0,0.1577 1.00903,0.26458 2.49793,0.26458 1.37988,0 2.57111,-0.11842 2.66144,-0.26458 z M 78.486734,197.16801 c -1.035462,-0.35664 -2.125829,-1.77348 -2.125829,-2.76233 0,-1.94435 1.731833,-3.43428 3.687046,-3.17203 3.279738,0.43991 3.845478,4.63807 0.789786,5.86071 -1.216363,0.48669 -1.157152,0.48484 -2.351003,0.0737 z m 2.257817,-0.57086 c 0.633584,-0.26473 1.051108,-0.68423 1.3189,-1.32514 0.496078,-1.18728 0.275101,-2.07727 -0.724641,-2.91849 -1.918734,-1.61451 -4.855159,0.0616 -4.32631,2.46941 0.191619,0.87244 0.750311,1.47337 1.735095,1.86629 0.886008,0.3535 0.936072,0.3512 1.996956,-0.0921 z m -24.846803,0.10858 c -2.218518,-1.74509 -0.892972,-5.39774 1.958837,-5.39774 1.883622,0 3.158487,1.27713 3.158487,3.16411 0,0.75925 -0.201078,1.1789 -0.899583,1.8774 -0.781481,0.78149 -1.072049,0.89959 -2.213276,0.89959 -0.924502,0 -1.518341,-0.16098 -2.004465,-0.54336 z m 3.860554,-0.79318 c 1.274736,-1.38139 0.77793,-3.37094 -0.987219,-3.95349 -1.082175,-0.35715 -2.03128,-0.14045 -2.753934,0.62878 -1.223806,1.30268 -0.872273,3.10536 0.768271,3.93973 1.156813,0.58834 2.028914,0.40793 2.972882,-0.61502 z m 74.295038,-0.36725 c -0.17385,-0.20949 -0.27773,-0.7155 -0.23083,-1.12448 0.1555,-1.35612 2.33422,-1.08151 2.33422,0.29421 0,1.11107 -1.40882,1.66717 -2.10339,0.83027 z m 1.47984,-0.54854 c 0.20044,-0.52234 -0.36715,-1.1966 -0.851,-1.01093 -0.38852,0.14909 -0.51435,0.92158 -0.20114,1.23478 0.31204,0.31205 0.89401,0.18823 1.05214,-0.22385 z m 11.5883,0.69346 c -0.0643,-0.0643 -0.11683,-0.44998 -0.11683,-0.85717 0,-0.96451 0.84776,-1.46901 1.76571,-1.05077 0.83687,0.38131 7.82661,0.38179 9.06342,6.4e-4 3.1278,-0.96394 4.52878,-2.39643 4.71198,-4.81798 0.33141,-4.38039 -4.66424,-6.78046 -8.00601,-3.84635 -1.58892,1.39509 -1.94391,3.02176 -1.3048,5.97893 0.1854,0.85787 0.18335,0.8599 -0.87317,0.8599 -1.53224,0 -1.78526,-0.44637 -1.78526,-3.14952 0,-2.00334 0.0865,-2.42159 0.72574,-3.509 3.87727,-6.59563 13.7608,-4.27924 13.67392,3.20474 -0.0351,3.02761 -1.35627,5.31576 -3.72092,6.4445 -1.37779,0.65767 -1.59832,0.67962 -7.71764,0.76796 -3.46462,0.05 -6.35189,0.0384 -6.41614,-0.0259 z m 7.31349,-0.5578 5.71053,-0.13229 1.29393,-0.80075 c 1.90667,-1.17992 2.86419,-2.8691 2.98105,-5.2589 0.081,-1.65665 0.002,-2.0487 -0.66967,-3.32822 -2.62989,-5.00901 -9.45097,-4.86316 -12.14723,0.25974 -0.64734,1.22995 -0.70128,4.8048 -0.0818,5.42423 0.22882,0.22883 0.60499,0.34354 0.83594,0.25492 0.3365,-0.12912 0.3721,-0.32778 0.17926,-1.00016 -0.62414,-2.17629 0.0238,-4.45626 1.67952,-5.91002 3.49116,-3.06527 8.92777,-0.66512 8.92777,3.94143 0,2.69978 -1.55896,4.61643 -4.4569,5.47947 -1.48076,0.44099 -2.54852,0.54063 -5.75808,0.53733 -2.16713,-0.002 -4.10802,-0.11027 -4.31311,-0.2401 -0.51741,-0.32755 -1.08233,-0.0588 -1.08233,0.515 0,0.5176 0.49919,0.81588 0.92605,0.55335 0.14552,-0.0895 2.83432,-0.22227 5.97511,-0.29503 z m -17.66022,-0.15008 c -0.29381,-0.76565 0.32345,-0.92782 3.24106,-0.8515 2.7669,0.0724 2.89134,0.10046 2.97234,0.67085 0.0835,0.58801 0.0469,0.59531 -2.98486,0.59531 -2.5428,0 -3.09672,-0.0711 -3.22854,-0.41466 z m 5.33511,-0.1145 c 0.33479,-0.14387 -0.4913,-0.2164 -2.24896,-0.19747 l -2.77813,0.0299 2.11667,0.16755 c 1.16417,0.0922 2.1762,0.18101 2.24896,0.19747 0.0728,0.0164 0.37041,-0.0724 0.66146,-0.19747 z"
       id="path302" /><path
       style="fill:#ffffff;fill-opacity:0.7;stroke:#ffffff;stroke-width:0.915888;stroke-opacity:0.7"
       d="m -2.7406699,812.48069 c 0.9926869,-2.51847 8.4438226,-20.93318 16.5580789,-40.92157 8.114256,-19.9884 14.952862,-36.85692 15.196903,-37.4856 0.46161,-1.18917 16.963891,-1.66309 20.921233,-0.60083 1.570268,0.42151 4.990137,8.13014 18.473483,41.64054 11.767548,29.24611 16.207005,41.25355 15.371083,41.57433 -0.64647,0.24807 -4.613635,0.33042 -8.815923,0.18299 l -7.640521,-0.26806 -2.827227,-7.31558 -2.827227,-7.31559 -13.231473,-0.57093 c -7.27731,-0.31401 -14.532472,-0.62263 -16.122582,-0.68584 l -2.891108,-0.1149 2.433884,-6.85394 2.433884,-6.85393 9.144485,-0.0184 c 5.029466,-0.0101 9.659252,-0.34529 10.288413,-0.74478 1.228141,-0.7798 -0.783611,-7.44377 -7.488139,-24.80458 -3.303376,-8.55382 -4.649014,-11.01901 -6.014787,-11.01901 -1.222282,0 -17.210661,38.40326 -25.983539,62.41111 l -1.587237,4.34363 H 4.0527296 -4.545555 Z"
       id="path420"
       transform="scale(0.26458333)" /><path
       style="fill:#ffffff;fill-opacity:0.7;stroke:#ffffff;stroke-width:0.915888;stroke-opacity:0.7"
       d="m 95.214268,816.23361 c -1.034486,-0.65524 -1.174488,-4.62235 -0.782088,-22.16137 0.262877,-11.7498 0.907371,-22.71224 1.432209,-24.36098 1.696706,-5.33007 6.242571,-9.97957 13.122131,-13.42127 5.73515,-2.86917 7.28714,-3.24167 13.50647,-3.24167 8.23273,0 15.33408,1.87769 19.10655,5.05202 3.46311,2.91401 5.00552,2.8504 10.11885,-0.41736 5.66215,-3.61849 11.59916,-4.95752 19.68106,-4.43885 7.29874,0.4684 12.48116,2.80151 17.15704,7.72404 4.45919,4.6944 5.51873,8.77727 5.89455,22.71418 0.18988,7.04125 0.49245,17.43167 0.67239,23.08982 l 0.32715,10.28755 h -8.01012 -8.01011 l -0.36506,-20.34648 c -0.30837,-17.18742 -0.61463,-20.81419 -1.97251,-23.35888 -4.52121,-8.47278 -17.73079,-8.82809 -23.10792,-0.62155 -1.33281,2.03412 -1.6362,5.57315 -2.00279,23.36209 l -0.43203,20.96482 h -7.55079 -7.55079 l -0.35417,-20.80371 c -0.38195,-22.43636 -0.77559,-24.44918 -5.45895,-27.91395 -3.0299,-2.24152 -10.27401,-2.39088 -14.32628,-0.29537 -4.97665,2.57353 -5.39717,4.47594 -6.13447,27.7521 l -0.67346,21.26093 -6.51341,-0.014 c -3.582371,-0.008 -7.080427,-0.37314 -7.773452,-0.8121 z"
       id="path422"
       transform="scale(0.26458333)" /><path
       style="fill:#ffffff;fill-opacity:0.7;stroke:#ffffff;stroke-width:0.915888;stroke-opacity:0.7"
       d="m 210.63772,808.14385 c 0.32473,-4.90373 0.59255,-19.10055 0.59515,-31.54848 l 0.005,-22.6326 h 7.31559 7.31558 v 31.54848 31.54847 h -7.91073 -7.91073 z"
       id="path424"
       transform="scale(0.26458333)" /><path
       style="fill:#ffffff;fill-opacity:0.7;stroke:#ffffff;stroke-width:0.915888;stroke-opacity:0.7"
       d="m 260.64514,816.95676 c -3.96566,-1.58268 -8.41248,-5.53163 -9.70058,-8.61449 -0.83149,-1.99005 -1.45752,-9.25898 -1.87233,-21.74001 l -0.62317,-18.75033 -2.71719,-0.54344 c -1.49445,-0.29889 -3.6945,-0.54344 -4.889,-0.54344 -2.07773,0 -2.17182,-0.27524 -2.17182,-6.35335 v -6.35335 l 4.80086,-0.2764 4.80085,-0.2764 0.26422,-8.00143 0.26421,-8.00142 h 7.73721 7.73721 v 7.67498 c 0,8.88512 -0.0998,8.78509 8.76205,8.78509 h 5.86913 v 6.27685 6.27684 l -4.24265,0.58152 c -2.33346,0.31984 -5.68448,0.58152 -7.44672,0.58152 h -3.20406 l 0.4771,16.6402 0.47709,16.64019 2.56022,2.20221 c 2.19782,1.89049 3.16607,2.12183 6.84049,1.6344 l 4.28027,-0.56779 1.0337,5.14714 c 0.56853,2.83093 0.83938,5.46154 0.60189,5.84581 -1.40487,2.27312 -15.23028,3.4946 -19.63898,1.7351 z"
       id="path426"
       transform="scale(0.26458333)" /><path
       style="fill:#ffffff;fill-opacity:0.7;stroke:#ffffff;stroke-width:0.915888;stroke-opacity:0.7"
       d="m 214.79617,742.07906 c -5.93273,-3.13546 -6.84263,-9.27294 -2.08072,-14.03485 5.21528,-5.21529 14.98222,-1.51345 14.98222,5.67851 0,3.97483 -1.83835,6.92282 -5.49679,8.81467 -3.2635,1.68762 -3.35498,1.68196 -7.40471,-0.45833 z"
       id="path428"
       transform="scale(0.26458333)" /><path
       style="fill:#ffffff;fill-opacity:0.7;stroke:#ffffff;stroke-width:0.915888;stroke-opacity:0.7"
       d="m 296.56828,742.12046 c -3.56017,-2.1708 -4.85921,-4.44669 -4.85921,-8.51326 0,-5.63463 6.82901,-9.89879 12.23525,-7.63992 3.22444,1.34726 6.96816,5.44878 6.96816,7.63414 0,3.00134 -2.95686,7.32216 -6.00573,8.77606 -4.05498,1.93369 -4.78239,1.91127 -8.33847,-0.25702 z"
       id="path432"
       transform="scale(0.26458333)" /><path
       style="fill:#ffffff;fill-opacity:0.7;stroke:#ffffff;stroke-width:0.915888;stroke-opacity:0.7"
       d="m 292.62351,785.51125 v -31.54848 h 7.65851 7.65851 l 0.57153,2.85765 c 0.74477,3.72386 0.72752,49.20649 -0.021,55.43844 l -0.57665,4.80086 h -7.64544 -7.64544 z"
       id="path434"
       transform="scale(0.26458333)" /><path
       style="fill:#ffffff;fill-opacity:0.7;stroke:#ffffff;stroke-width:0.915888;stroke-opacity:0.7"
       d="m 347.07878,817.45208 c -10.26072,-2.54118 -17.71818,-8.74457 -22.32597,-18.57159 -2.04545,-4.36233 -2.40972,-6.38622 -2.40972,-13.38847 0,-7.46392 0.28378,-8.82571 2.98081,-14.30416 3.46915,-7.04683 8.42655,-11.88295 15.65564,-15.27259 4.52992,-2.12403 6.27756,-2.40972 14.74092,-2.40972 8.5829,0 10.13565,0.26224 14.63381,2.47143 2.76766,1.35929 6.65273,3.95586 8.63348,5.77016 l 3.60137,3.29873 -2.68956,2.18137 c -1.47926,1.19975 -4.00177,2.9011 -5.60559,3.78076 -2.87426,1.57649 -2.99213,1.56086 -8.23004,-1.09143 -10.86594,-5.50212 -21.94315,-2.68326 -26.064,6.63262 -2.62512,5.93451 -2.09614,16.01355 1.08402,20.65469 5.37019,7.83727 15.97615,9.76214 24.58896,4.46262 2.58841,-1.59266 5.21083,-2.89575 5.8276,-2.89575 0.61678,0 3.29671,1.49818 5.95541,3.3293 4.68545,3.227 4.78455,3.38394 3.22485,5.10739 -2.81033,3.10538 -10.00749,7.99102 -13.68114,9.28717 -5.83371,2.05825 -13.90895,2.44637 -19.92085,0.95747 z"
       id="path436"
       transform="scale(0.26458333)" /><path
       style="fill:#ffffff;fill-opacity:0.7;stroke:#ffffff;stroke-width:0.914646;stroke-dasharray:none;stroke-opacity:0.7"
       d="m 395.04174,775.45231 v -41.6074 h 8.68726 8.68726 v 41.6074 41.60741 h -8.68726 -8.68726 z"
       id="path438"
       transform="scale(0.26458333)" /><path
       style="fill:#ffffff;fill-opacity:0.7;stroke:#ffffff;stroke-width:0.915888;stroke-opacity:0.7"
       d="m 422.08844,815.00221 c 0.70242,-2.2202 20.7705,-51.34112 28.76667,-70.41253 l 4.88841,-11.65922 9.19901,0.0125 c 5.05945,0.007 10.05226,0.24162 11.09512,0.52168 1.43653,0.38576 3.2097,3.70695 7.31559,13.70224 l 5.41947,13.19306 18.28897,0.1993 18.28897,0.1993 -16.90605,0.48853 c -15.03215,0.43438 -16.93948,0.6629 -17.20772,2.06162 -0.33987,1.77228 11.78472,32.94211 14.09952,36.24695 1.41476,2.01985 1.90315,2.10992 8.92655,1.6462 4.08645,-0.2698 8.45866,-0.61855 9.71603,-0.77498 1.7713,-0.22037 2.28612,0.12744 2.28612,1.54448 0,1.42836 -0.50067,1.7573 -2.28612,1.502 -1.25737,-0.17979 -5.16663,-0.38554 -8.68726,-0.45722 l -6.40114,-0.13033 0.11001,3.49346 c 0.0605,1.92141 0.59522,3.97892 1.18826,4.57224 0.76431,0.76468 7.05529,1.07878 21.6066,1.07878 15.83459,0 20.52869,0.26189 20.52989,1.1454 9.1e-4,0.89978 -3.99435,1.01653 -18.63252,0.54443 -18.31454,-0.59068 -18.66299,-0.5672 -20.3211,1.36933 -1.49811,1.74967 -2.61147,1.96874 -9.94245,1.9563 -4.54048,-0.008 -8.70212,-0.31632 -9.24809,-0.68583 -0.54597,-0.36951 -2.1716,-3.6998 -3.61251,-7.40064 -1.44092,-3.70084 -3.05172,-6.86302 -3.57957,-7.02706 -0.52785,-0.16404 -7.82067,-0.57338 -16.20626,-0.90963 l -15.24654,-0.61138 2.38452,-6.76413 2.38452,-6.76412 h 9.46153 c 7.92504,0 9.55497,-0.2435 10.03693,-1.49946 1.08339,-2.82327 -10.70012,-34.02156 -13.15735,-34.8357 -0.60168,-0.19935 -1.96186,1.33879 -3.02264,3.41809 -2.11524,4.14621 -13.70248,33.03773 -20.6284,51.43465 l -4.38937,11.65922 h -8.58427 c -8.48544,0 -8.57677,-0.0237 -7.93333,-2.05751 z"
       id="path440"
       transform="scale(0.26458333)" /><path
       style="fill:#ffffff;fill-opacity:0.7;stroke:#ffffff;stroke-width:0.915888;stroke-opacity:0.7"
       d="m 553.07543,789.85556 c 11.728,-0.14482 30.65708,-0.14466 42.06463,3.5e-4 11.40754,0.14502 1.81191,0.26351 -21.32364,0.26332 -23.13554,-1.9e-4 -32.46899,-0.11884 -20.74099,-0.26367 z"
       id="path442"
       transform="scale(0.26458333)" /><path
       style="fill:#ffffff;fill-opacity:0.7;stroke:#ffffff;stroke-width:0.915888;stroke-opacity:0.7"
       d="m 553.92717,788.02682 c 11.69351,-0.14474 30.82834,-0.14474 42.52185,0 11.69351,0.14474 2.12609,0.26316 -21.26093,0.26316 -23.38702,0 -32.95443,-0.11842 -21.26092,-0.26316 z"
       id="path444"
       transform="scale(0.26458333)" /><path
       style="fill:#ffffff;fill-opacity:0.7;stroke:#ffffff;stroke-width:0.915888;stroke-opacity:0.7"
       d="m 605.6211,788.03853 c 2.40417,-0.18899 6.10769,-0.18671 8.23003,0.005 2.12235,0.19178 0.1553,0.34641 -4.37122,0.34363 -4.52652,-0.003 -6.26298,-0.1597 -3.85881,-0.3487 z"
       id="path446"
       transform="scale(0.26458333)" /><path
       style="fill:#ffffff;fill-opacity:0.7;stroke:#ffffff;stroke-width:0.915888;stroke-opacity:0.7"
       d="m 636.70766,854.5027 c -8.90699,-1.88673 -13.84824,-11.42851 -9.88607,-19.0905 1.87996,-3.63544 6.3521,-7.16344 10.49436,-8.27884 3.42437,-0.92208 3.56256,-1.12147 5.08614,-7.33857 0.86137,-3.51491 1.3355,-6.99174 1.05363,-7.7263 -0.28188,-0.73456 -2.69222,-2.43532 -5.35632,-3.77948 -6.83234,-3.44723 -12.47977,-8.4768 -16.73166,-14.90112 l -3.65779,-5.52669 -42.90302,-0.26053 c -37.18726,-0.22582 -42.95884,-0.44327 -43.322,-1.6322 -0.33814,-1.10703 -0.18521,-1.15114 0.79267,-0.22861 0.93474,0.88183 11.27026,1.14306 45.2255,1.14306 h 44.01385 l 2.91962,4.50573 c 3.45364,5.32988 10.23451,11.23503 15.80215,13.76138 3.3212,1.50701 5.98347,1.81059 15.87807,1.81059 14.24284,0 17.01412,-0.96377 25.18693,-8.75931 5.54996,-5.29377 6.80748,-8.39052 3.73363,-9.19435 -0.9424,-0.24644 -2.60073,-1.64817 -3.68517,-3.11496 -1.802,-2.43734 -2.45001,-2.66688 -7.52886,-2.66688 -4.6917,0 -5.47071,-0.22526 -5.00209,-1.44646 0.30529,-0.79555 0.55506,-1.61369 0.55506,-1.81809 0,-0.20439 1.64601,-0.63483 3.65779,-0.95653 3.19204,-0.51043 3.65666,-0.89023 3.64886,-2.98277 -0.0108,-2.90024 -4.10831,-11.99956 -5.40351,-11.99956 -1.18519,0 -2.19481,1.91025 -7.49135,14.17395 -3.77521,8.74121 -4.65208,10.09684 -6.69364,10.34828 -1.29213,0.15915 -2.32424,-0.0466 -2.29356,-0.45722 0.0306,-0.41062 2.83038,-7.32846 6.22157,-15.37298 5.24002,-12.43028 6.53186,-14.75514 8.6038,-15.4838 3.53322,-1.24257 5.3508,0.82817 9.84923,11.221 8.29811,19.17138 8.4337,19.4256 11.09461,20.8016 l 2.60703,1.34816 -2.29871,3.38285 c -1.26429,1.86057 -2.2987,4.11953 -2.2987,5.01991 0,2.10935 6.98768,9.70908 9.509,10.34189 1.06269,0.26672 4.71682,-0.5632 8.12029,-1.84426 10.76181,-4.05073 18.33976,-2.64196 26.56329,4.93823 7.52649,6.93767 10.5575,19.6267 6.57622,27.53065 -2.18449,4.33679 -8.41999,10.67782 -12.81919,13.03611 -5.15706,2.76457 -15.85562,2.7654 -21.07342,0.002 -5.02706,-2.66274 -10.75873,-9.08786 -12.74375,-14.28555 -2.12261,-5.55799 -1.51818,-14.0451 1.42964,-20.07419 l 2.12964,-4.35567 -5.41752,-5.47465 c -2.97964,-3.01127 -5.98079,-5.47486 -6.66924,-5.47486 -0.68844,0 -3.78942,1.41917 -6.89107,3.15371 -6.66721,3.72851 -14.69838,5.99078 -21.26763,5.99078 -6.15094,0 -8.12541,1.72513 -9.87789,8.63049 l -1.37803,5.42992 3.64116,3.95019 c 5.89435,6.39462 6.64863,9.96409 3.48604,16.49713 -2.92158,6.03516 -8.68724,8.88485 -15.18959,7.50749 z m 85.14531,-3.98852 c 12.65559,-3.80878 18.63011,-17.34606 12.99585,-29.44646 -5.67738,-12.19302 -23.01337,-15.36696 -32.86474,-6.017 -10.12759,9.61211 -7.80241,27.35916 4.42737,33.79209 5.67408,2.9846 9.64857,3.41479 15.44152,1.67137 z m -74.82373,-2.4167 c 4.08359,-3.83634 2.60708,-13.38955 -2.47568,-16.01794 -9.4219,-4.87225 -19.86889,6.50225 -13.4578,14.65262 1.07535,1.3671 2.82423,2.85876 3.8864,3.31481 3.23024,1.38692 9.59134,0.35754 12.04708,-1.94949 z"
       id="path448"
       transform="scale(0.26458333)" /><path
       style="fill:#ffffff;fill-opacity:0.7;stroke:#ffffff;stroke-width:0.915888;stroke-opacity:0.7"
       d="m 584.84268,832.15532 c -5.51349,-1.96409 -8.04981,-4.21697 -10.79765,-9.59098 -3.00118,-5.86949 -3.28425,-9.16242 -0.7876,-9.16242 1.22371,0 1.89083,0.86626 2.28878,2.97196 1.93225,10.22437 13.00436,15.39296 23.12829,10.79655 3.93417,-1.78618 5.97424,-4.60627 7.0933,-9.80543 1.10116,-5.11599 -0.37208,-9.49517 -4.77955,-14.20711 -3.92556,-4.19674 -4.00436,-4.38714 -1.81573,-4.38714 5.45349,0 11.02589,8.13387 11.02589,16.09416 0,8.10516 -5.75753,15.38283 -14.05156,17.76153 -4.15014,1.19024 -6.97043,1.0727 -11.30417,-0.47112 z"
       id="path452"
       transform="scale(0.26458333)" /><path
       style="fill:#ffffff;fill-opacity:0.7;stroke:#ffffff;stroke-width:0.228972;stroke-opacity:0.7"
       d="m 597.8207,800.44975 -1.25737,-1.13939 -20.34648,0.11289 c -19.85981,0.11019 -33.16646,-0.0868 -34.94845,-0.51737 -0.48689,-0.11764 -0.98659,-0.31524 -1.11045,-0.4391 -1.09393,-1.09393 6.44902,-1.32248 32.27485,-0.97795 19.92135,0.26577 22.85581,0.35954 26.53096,0.84786 l 1.48597,0.19745 -1.36966,0.1183 c -1.69346,0.14628 -1.81016,0.45977 -0.66789,1.79425 0.45899,0.53623 0.79658,1.01264 0.75021,1.0587 -0.0464,0.0461 -0.65014,-0.42898 -1.34169,-1.05564 z"
       id="path454"
       transform="scale(0.26458333)" /><path
       style="fill:#ffffff;fill-opacity:0.7;stroke:#ffffff;stroke-width:0.228972;stroke-opacity:0.7"
       d="m 528.14866,782.90073 -4.63188,-5.45491 -9.08485,-0.1243 c -8.30107,-0.11358 -10.9977,-0.27669 -11.41125,-0.69024 -0.58974,-0.58973 2.70121,-0.87407 11.4709,-0.9911 l 8.45865,-0.11287 5.14186,5.16343 c 2.82803,2.83988 5.02801,5.16342 4.88884,5.16342 -0.13917,0 -0.5146,-0.20575 -0.83429,-0.45722 -0.3197,-0.25147 -0.6422,-0.45722 -0.71667,-0.45722 -0.26891,0 -0.12807,1.09316 0.17304,1.34306 1.05383,0.87459 8.73616,1.16825 36.13879,1.3814 l 21.96316,0.17085 -20.40363,0.0383 c -13.42446,0.0252 -20.40363,0.11652 -20.40363,0.26694 0,0.14821 -2.83418,0.22628 -8.05858,0.22198 l -8.05857,-0.007 -4.63189,-5.45491 z"
       id="path456"
       transform="scale(0.26458333)" /><path
       style="fill:#ffffff;fill-opacity:0.7;stroke:#ffffff;stroke-width:0.228972;stroke-opacity:0.7"
       d="m 552.15542,779.51789 c 0.34578,-0.0524 0.91159,-0.0524 1.25737,0 0.34578,0.0524 0.0629,0.0952 -0.62868,0.0952 -0.69155,0 -0.97446,-0.0429 -0.62869,-0.0952 z"
       id="path458"
       transform="scale(0.26458333)" /><path
       style="fill:#ffffff;fill-opacity:0.7;stroke:#ffffff;stroke-width:0.228972;stroke-opacity:0.7"
       d="m 543.98254,779.2389 c -9.63355,-0.57799 -4.73212,-1.60465 7.65851,-1.60417 7.44106,2.9e-4 13.16448,0.41448 12.64789,0.91531 -0.64591,0.6262 -13.87237,1.07488 -20.3064,0.68886 z"
       id="path460"
       transform="scale(0.26458333)" /><path
       style="fill:#ffffff;fill-opacity:0.7;stroke:#ffffff;stroke-width:0.228972;stroke-opacity:0.7"
       d="m 423.50395,819.22769 c -3.36164,-0.19607 -4.83003,-0.41826 -5.12672,-0.77575 -0.43768,-0.52737 0.41296,-3.01636 3.87931,-11.35099 1.90548,-4.58161 6.80649,-16.40592 10.89113,-26.27625 11.43791,-27.63913 17.6871,-42.46151 20.07351,-47.61214 0.38438,-0.82961 0.84043,-1.43695 1.23044,-1.63863 1.11124,-0.57465 4.133,-0.8264 11.57419,-0.9643 9.98617,-0.18505 11.6182,0.0839 13.44266,2.21538 1.14552,1.33829 1.95655,3.10848 6.46083,14.1018 2.20284,5.37633 4.09517,9.86514 4.20517,9.97514 0.11,0.11 5.32672,0.2853 11.59272,0.38956 6.26599,0.10425 13.73012,0.23822 16.58694,0.29771 l 5.19422,0.10815 5.28925,-5.58225 5.28925,-5.58224 42.44023,-9.1e-4 42.44024,-9.2e-4 4.19657,-3.77649 c 6.77166,-6.09379 11.06442,-9.03368 16.1499,-11.06021 4.72491,-1.88283 8.63393,-2.58474 16.803,-3.01717 3.07876,-0.16298 5.24459,-0.37344 5.39492,-0.52427 0.2702,-0.27109 1.84721,-7.27164 2.0689,-9.18413 0.1768,-1.52527 -0.23424,-2.29784 -1.91827,-3.60536 -1.63224,-1.26735 -3.03059,-2.72263 -3.77603,-3.92979 -2.02429,-3.27805 -2.74549,-9.3943 -1.62865,-13.81187 1.41721,-5.60565 6.59614,-10.34161 12.65041,-11.56836 7.50019,-1.51974 15.62148,3.35916 18.59947,11.17371 0.67184,1.76299 0.71263,2.04975 0.7207,5.06927 0.007,2.68786 -0.0727,3.45692 -0.49849,4.80085 -0.75385,2.37925 -1.99665,4.304 -4.29382,6.64996 -2.47116,2.52365 -4.9404,4.18105 -7.48821,5.02622 -2.31284,0.76723 -2.77446,1.05688 -3.23669,2.03098 -0.39813,0.839 -1.96307,7.58072 -1.96307,8.45687 0,0.8926 0.96767,1.78611 3.35342,3.09646 3.52177,1.93428 6.08641,3.56036 8.7037,5.51846 1.32856,0.99394 2.66317,1.86931 2.96583,1.94528 1.10975,0.27853 2.39976,-0.0991 3.92858,-1.15014 2.54034,-1.74639 6.89444,-5.1982 8.64719,-6.85527 2.25713,-2.1339 2.31417,-2.37129 1.54505,-6.42985 -0.72051,-3.80211 -0.97011,-8.39271 -0.58895,-10.83168 0.63339,-4.05286 2.9598,-8.41083 6.30853,-11.81759 3.1332,-3.1875 6.73286,-5.05225 11.47029,-5.94202 2.8192,-0.52949 8.16889,-0.35541 10.59078,0.34463 2.06037,0.59554 4.9487,1.9621 6.51544,3.08267 2.62155,1.87497 5.27205,4.95814 6.7207,7.81775 0.69939,1.38059 0.70892,1.4454 0.68858,4.68655 l -0.0206,3.28659 -0.30807,-1.70247 c -0.72429,-4.00216 -2.42165,-7.12676 -5.59501,-10.2996 -2.29303,-2.29266 -3.64113,-3.21014 -6.55657,-4.46229 -2.72504,-1.17037 -5.08416,-1.56303 -8.51469,-1.41724 -5.60111,0.23805 -9.85576,2.1726 -13.74752,6.25085 -1.96071,2.05466 -2.70857,3.18079 -4.31999,6.50504 -2.15167,4.43876 -2.19125,5.05099 -0.89579,13.85543 l 0.71263,4.84325 -0.50425,1.04165 c -0.3474,0.7176 -1.1205,1.55793 -2.48513,2.70117 -4.80314,4.02396 -11.53785,8.86259 -12.32928,8.85813 -0.77769,-0.004 -2.73889,-1.10662 -6.56887,-3.69187 -2.13753,-1.44282 -5.17235,-3.27386 -6.74406,-4.06897 -1.57171,-0.79511 -3.14211,-1.64506 -3.48979,-1.88878 -1.80585,-1.26592 -1.78224,-3.82306 0.0951,-10.3005 0.96888,-3.34291 1.52804,-3.95594 4.82381,-5.2887 3.36041,-1.35891 4.7723,-2.24247 6.79115,-4.24991 2.92127,-2.90482 4.31201,-5.92882 4.51612,-9.8199 0.30979,-5.90578 -2.60067,-10.58665 -8.39281,-13.49808 -4.11918,-2.07051 -6.85125,-2.33999 -10.60479,-1.04601 -4.03617,1.3914 -6.93861,3.86912 -8.58928,7.33238 -2.11281,4.43287 -2.08602,8.90269 0.0795,13.25951 0.80204,1.61363 1.51693,2.59227 3.31378,4.53632 2.83801,3.07053 3.10944,3.68187 2.93425,6.60873 -0.0936,1.56393 -0.40368,3.06679 -1.19093,5.77224 -0.58538,2.01179 -1.1503,3.74614 -1.25535,3.85411 -0.10507,0.10798 -1.51209,0.28584 -3.12671,0.39525 -10.521,0.71294 -13.00069,1.0704 -17.24663,2.48619 -3.26746,1.08952 -6.57427,2.72953 -9.49094,4.70703 -2.80569,1.90226 -4.65009,3.41153 -9.3708,7.66812 l -3.77915,3.4076 h -42.33669 -42.33669 l -5.48311,5.48669 -5.48312,5.48669 H 506.60408 489.1113 l -5.4658,-13.23372 -5.4658,-13.23372 -8.13445,-0.18586 c -4.47396,-0.10223 -9.60596,-0.19098 -11.40446,-0.19725 l -3.27001,-0.0114 -1.26928,2.85766 c -2.76654,6.2286 -10.59269,25.05009 -23.09932,55.55274 -8.22897,20.06978 -10.63499,26.08749 -10.48885,26.23363 0.26291,0.2629 5.6904,0.48841 12.05326,0.5008 l 6.77652,0.0132 1.02808,-3.14342 c 2.11932,-6.47991 16.13728,-42.50566 20.96897,-53.88964 2.08208,-4.90559 3.71995,-8.27018 4.45428,-9.15015 0.56428,-0.6762 0.57742,-0.67941 0.93539,-0.22861 2.0193,2.54295 11.99731,27.69315 12.87888,32.46202 0.30568,1.65354 0.0972,2.05943 -1.17201,2.28235 -0.53915,0.0947 -4.93763,0.23735 -9.77439,0.31703 l -8.79411,0.14486 -2.60984,7.15174 c -1.43541,3.93346 -2.5512,7.21037 -2.47954,7.28204 0.35958,0.35958 4.82225,0.57255 16.04784,0.76587 11.70395,0.20154 14.89856,0.38768 15.90587,0.92678 0.62761,0.33589 1.12966,1.40953 3.89753,8.33507 l 2.46693,6.17253 3.49601,0.1412 c 1.92281,0.0777 6.13836,0.15482 9.36789,0.17146 6.96393,0.0359 7.48976,-0.0779 7.49843,-1.62191 0.002,-0.42316 0.20234,-0.75362 0.62253,-1.02876 0.57361,-0.3756 1.53372,-0.40515 13.08804,-0.40286 7.52158,0.002 14.63131,0.12399 17.91865,0.30871 5.64296,0.3171 7.21774,0.24829 7.80714,-0.34111 0.4801,-0.48011 0.43785,-1.97738 -0.0736,-2.60903 l -0.41929,-0.5178 -2.95174,0.30096 c -2.31183,0.23571 -6.66901,0.26798 -20.09865,0.14886 -9.4308,-0.0837 -17.45554,-0.23574 -17.83275,-0.33797 -0.59795,-0.16204 -0.79466,-0.44757 -1.53511,-2.22827 -0.68865,-1.65614 -0.85079,-2.3349 -0.8573,-3.58891 -0.008,-1.50052 0.0141,-1.5603 0.73497,-2.01104 0.70538,-0.44103 0.98026,-0.45733 5.42954,-0.32205 5.10755,0.15531 5.73129,0.26705 7.41657,1.32865 1.64655,1.0372 2.60591,0.98038 3.81207,-0.22578 0.74027,-0.74027 0.9614,-1.15009 1.0514,-1.94854 0.097,-0.86053 0.0211,-1.1214 -0.50927,-1.75177 -1.28341,-1.52525 -2.76544,-1.79044 -4.62224,-0.8271 -1.77068,0.91866 -4.39037,1.27677 -9.66326,1.32095 -4.50445,0.0377 -4.71885,0.0192 -5.51773,-0.47762 -0.45715,-0.28429 -1.20093,-1.05585 -1.65285,-1.71459 -1.08997,-1.58882 -10.45003,-24.44646 -13.20457,-32.2461 -1.25881,-3.56439 -1.2406,-3.86885 0.25541,-4.27168 1.63237,-0.43955 8.83785,-0.67534 20.80736,-0.68088 l 11.77531,-0.005 5.48312,-5.48669 5.48312,-5.48669 h 44.69954 44.69954 l 2.39634,-2.41745 c 5.79526,-5.84631 11.4713,-9.56843 17.0619,-11.18853 4.07901,-1.18205 16.43966,-1.25378 20.70451,-0.12015 9.0492,2.40534 18.39008,10.30984 23.00574,19.46802 1.68995,3.3531 2.62456,6.28684 3.33822,10.47863 0.36726,2.15712 0.71084,3.50261 0.98984,3.87631 0.54776,0.73364 1.64146,1.0148 3.35541,0.86258 2.25585,-0.20035 2.27737,-0.3401 1.00521,-6.52786 -0.92641,-4.50588 -2.13588,-8.04551 -4.28957,-12.55363 -1.00401,-2.10162 -1.89492,-4.21266 -1.97978,-4.6912 -0.19093,-1.0766 -0.0628,-1.22508 3.67348,-4.25825 5.6371,-4.57623 11.78916,-8.93132 12.61653,-8.93132 0.23101,0 1.89478,0.72022 3.69723,1.60049 4.95313,2.41894 5.78428,2.63015 10.31955,2.62235 3.67352,-0.006 3.83031,-0.0265 5.99958,-0.77137 4.34642,-1.49249 8.52173,-4.78255 11.1702,-8.80192 1.47077,-2.23208 2.14813,-3.81275 2.60542,-6.08016 l 0.29971,-1.48598 0.0215,3.03671 c 0.0201,2.84856 -0.0158,3.11061 -0.58079,4.22933 -0.91207,1.80603 -1.84574,3.09067 -3.49872,4.81382 -2.85091,2.97199 -6.02764,4.92128 -9.61573,5.90037 -1.74003,0.4748 -2.42127,0.52897 -6.51544,0.5181 -5.35471,-0.0142 -6.66574,-0.28007 -10.63945,-2.15735 -1.32519,-0.62605 -2.67188,-1.13827 -2.99262,-1.13827 -0.95784,0 -3.134,1.23958 -5.70696,3.25079 -6.30663,4.92971 -9.33021,7.40138 -9.34052,7.63558 -0.006,0.14074 0.74232,1.74246 1.6634,3.55937 0.95103,1.87594 2.13437,4.68482 2.73843,6.50008 1.85585,5.57712 3.14527,11.86571 2.80494,13.67984 -0.23815,1.26941 -1.48086,1.75349 -4.5016,1.75349 -2.38797,0 -3.12685,-0.23101 -3.6067,-1.12763 -0.12126,-0.22659 -0.54127,-1.8148 -0.93334,-3.52936 -3.30301,-14.44406 -10.32711,-23.72624 -21.77098,-28.76979 -2.69648,-1.18839 -4.18767,-1.54122 -7.76796,-1.83796 -3.90788,-0.32388 -11.38374,-0.11742 -13.8066,0.38129 -4.23309,0.87134 -10.68168,4.23908 -15.05364,7.86166 -0.82416,0.6829 -2.44197,2.35463 -3.59514,3.71495 l -2.09666,2.47331 h -44.94059 -44.94059 l -5.4884,5.45849 -5.48841,5.45849 -16.44078,0.25658 c -9.04244,0.14112 -16.48917,0.30496 -16.54829,0.36408 -0.0591,0.0591 3.16846,7.97183 7.17242,17.58379 l 7.27993,17.47629 2.53437,0.15835 c 3.97053,0.24809 9.9406,0.0501 10.65834,-0.35343 0.32995,-0.18551 0.94563,-0.53245 1.36818,-0.77098 1.15092,-0.6497 3.49673,-0.59528 4.928,0.1143 0.88184,0.43719 1.2417,0.80225 1.77971,1.80537 1.35245,2.52165 0.79051,4.3998 -1.8151,6.06659 -1.93044,1.23489 -2.17486,1.23594 -4.5497,0.0196 -1.74087,-0.89162 -2.47605,-1.12553 -4.48281,-1.42633 -2.83874,-0.4255 -5.92309,-0.30368 -6.79626,0.26845 -0.47201,0.30928 -0.55075,0.50474 -0.45097,1.11959 0.20633,1.27146 1.14239,2.94508 1.88534,3.37089 1.35825,0.77845 4.69358,0.95414 18.39278,0.96888 13.51181,0.0145 16.35711,-0.13176 18.28897,-0.94037 1.96187,-0.82118 4.38846,-0.1983 5.64491,1.44899 0.5549,0.7275 0.64193,1.0479 0.64193,2.36318 0,1.29994 -0.0897,1.63916 -0.61578,2.3289 -0.86586,1.1352 -2.04339,1.63791 -3.87997,1.65644 -1.24177,0.0125 -1.65399,-0.0809 -2.22728,-0.50461 -0.99942,-0.7387 -2.42993,-0.94914 -8.13676,-1.19699 -10.01197,-0.43481 -22.74212,-0.17804 -24.20441,0.48822 -0.43804,0.19959 -0.81917,0.68253 -1.17676,1.49111 -0.79074,1.788 -0.63445,1.76852 -12.68275,1.58066 -5.59528,-0.0872 -10.20223,-0.22898 -10.23767,-0.31498 -0.0354,-0.086 -1.43889,-3.44839 -3.11881,-7.47196 l -3.05438,-7.31559 -5.91137,-0.16091 c -3.25125,-0.0885 -10.02638,-0.27044 -15.05585,-0.40432 -9.43713,-0.25121 -11.47692,-0.4427 -12.1047,-1.13639 -0.33809,-0.37359 -0.30517,-0.60693 0.42603,-3.0192 0.43584,-1.43788 1.81321,-5.28469 3.06083,-8.54846 l 2.2684,-5.93414 7.86584,-0.15015 c 7.84031,-0.14967 10.30249,-0.36877 10.90403,-0.97031 0.48499,-0.48499 -1.17923,-5.25265 -8.42733,-24.14264 -1.42293,-3.70843 -2.66108,-6.82939 -2.75144,-6.93547 -0.16885,-0.19822 -0.68574,1.08036 -8.48824,20.99658 -3.881,9.90638 -13.84734,35.7305 -16.78537,43.49312 l -0.88677,2.34294 -6.97267,-0.0359 c -3.83497,-0.0197 -8.20718,-0.10789 -9.71602,-0.1959 z"
       id="path462"
       transform="scale(0.26458333)" /><path
       style="fill:#ffffff;fill-opacity:0.7;stroke:#ffffff;stroke-width:0.228972;stroke-opacity:0.7"
       d="m 694.14176,771.20055 c -0.92388,-0.26745 -1.27041,-1.17039 -1.88501,-4.91172 -1.87472,-11.41221 -9.38916,-21.50282 -20.13712,-27.04069 -5.55926,-2.86441 -7.44481,-3.23798 -16.34869,-3.23904 -3.53054,-4.5e-4 -7.23745,0.11164 -8.23758,0.24901 -6.08262,0.83548 -13.16728,5.0785 -19.98857,11.97119 l -2.1673,2.18999 h -44.70005 -44.70005 l -5.19662,5.20092 -5.19662,5.20093 -2.91725,-0.14868 c -1.60448,-0.0818 -6.41501,-0.15909 -10.69006,-0.17183 -4.27504,-0.0127 -11.23088,-0.0908 -15.45742,-0.17347 l -7.6846,-0.15033 -2.23647,-5.45481 c -1.23005,-3.00014 -2.18505,-5.50622 -2.12221,-5.56906 0.0628,-0.0628 1.081,2.25259 2.26257,5.1454 l 2.14831,5.25965 17.74184,0.003 17.74185,0.003 5.4095,-5.48669 5.40951,-5.48669 h 42.35915 42.35915 l 3.87328,-3.48675 c 2.1303,-1.91771 4.64484,-4.1143 5.58787,-4.88132 5.86914,-4.7737 11.79263,-7.55788 18.8605,-8.86488 1.71624,-0.31737 4.15515,-0.53904 11.52028,-1.04706 1.6839,-0.11615 3.13318,-0.29428 3.22061,-0.39583 0.19449,-0.22591 1.69707,-5.34189 2.16928,-7.38594 0.18881,-0.81729 0.3438,-2.25755 0.34443,-3.20057 0.002,-2.33747 -0.61641,-3.60445 -2.94304,-6.03389 -2.28481,-2.38577 -3.44115,-4.16818 -4.20657,-6.48409 -2.67633,-8.09774 2.02477,-16.49125 10.46098,-18.67741 2.61685,-0.67813 4.81949,-0.41302 8.05293,0.96926 8.46226,3.61754 11.69287,11.72801 7.78607,19.54694 -0.73034,1.46168 -1.37217,2.30995 -2.89733,3.82921 -2.07865,2.07062 -3.86423,3.15874 -7.30062,4.44895 -3.0396,1.14124 -3.60229,1.98992 -4.94504,7.45843 -0.56848,2.31515 -0.8012,3.78086 -0.8012,5.04602 0,1.728 0.0256,1.81139 0.82766,2.69921 0.54351,0.6016 1.54419,1.25821 2.9148,1.91259 2.5958,1.23932 5.74246,3.13355 8.6939,5.23355 2.69827,1.91986 4.96448,3.14105 5.82899,3.14105 1.11924,0 9.8796,-6.30969 13.44895,-9.68667 2.33029,-2.20469 2.34521,-2.28658 1.46292,-8.02648 -0.96446,-6.27443 -1.08633,-8.12882 -0.64632,-9.83461 0.49102,-1.90351 1.97992,-5.05112 3.47233,-7.34067 5.94858,-9.12593 17.70121,-11.93784 26.95714,-6.4497 2.85585,1.69332 6.27877,5.41938 7.87546,8.5729 0.26597,0.52529 0.75269,1.86267 1.08159,2.97196 0.81194,2.73828 1.02315,7.52399 0.4578,10.37267 -1.17496,5.92023 -6.36767,11.91949 -12.46462,14.40066 -2.6987,1.09825 -4.71739,1.42876 -7.97459,1.30565 -3.52449,-0.13322 -4.90295,-0.52819 -9.07123,-2.59922 -4.12064,-2.04735 -4.09115,-2.04602 -6.74372,-0.30425 -2.62066,1.72082 -8.4092,6.08831 -11.54525,8.71097 -1.74316,1.45779 -2.30348,2.06243 -2.35918,2.54581 -0.10615,0.92113 0.51807,2.63588 2.14851,5.902 0.79142,1.58538 1.81274,3.95152 2.2696,5.25808 1.37562,3.93408 3.04261,11.56848 2.71335,12.42652 -0.29125,0.75899 -2.23792,1.03728 -3.89678,0.55707 z m 31.81603,-38.04133 c 2.38589,-0.49921 5.15806,-1.95764 6.75334,-3.55293 2.73395,-2.73395 4.06257,-6.9357 3.79997,-12.0175 -0.26119,-5.0551 -1.11707,-7.05207 -4.30056,-10.03428 -3.28203,-3.0745 -6.04561,-4.24873 -10.37525,-4.40839 -3.29313,-0.12143 -4.79278,0.19004 -7.6433,1.58747 -3.70294,1.81533 -6.61043,5.51386 -7.69892,9.79359 -0.52889,2.07951 -0.47463,5.77377 0.11811,8.04144 0.96883,3.70648 3.20496,7.14391 5.75501,8.84678 1.4616,0.97602 2.29759,1.28214 4.79003,1.754 2.10968,0.3994 6.87034,0.39389 8.80157,-0.0102 z M 676.3676,710.92849 c 1.32667,-0.69145 3.36104,-2.98512 4.25094,-4.79278 0.71481,-1.45199 0.75989,-1.6862 0.75989,-3.94877 0,-2.23508 -0.0521,-2.51525 -0.7365,-3.96017 -1.85772,-3.92209 -6.05126,-6.29037 -10.00034,-5.64764 -5.1305,0.83501 -9.03783,6.39299 -8.13581,11.57277 0.33887,1.94596 0.96358,3.25434 2.22231,4.65435 2.04636,2.27604 3.48204,2.77278 7.73446,2.67611 2.50149,-0.0569 3.11967,-0.14454 3.90505,-0.55387 z"
       id="path464"
       transform="scale(0.26458333)" /><path
       style="fill:#ffffff;fill-opacity:0.7;stroke:#ffffff;stroke-width:0.228972;stroke-opacity:0.7"
       d="m 510.66232,761.45007 c 2.67191,-0.0366 7.04412,-0.0366 9.71602,0 2.6719,0.0366 0.4858,0.0665 -4.85801,0.0665 -5.34381,0 -7.52991,-0.0299 -4.85801,-0.0665 z"
       id="path466"
       transform="scale(0.26458333)" /><path
       style="fill:#ffffff;fill-opacity:0.7;stroke:#ffffff;stroke-width:0.228972;stroke-opacity:0.7"
       d="m 560.09287,762.93582 c -1.1209,-0.56626 -2.05068,-1.75807 -2.05068,-2.62858 0,-0.33271 0.31596,-0.87654 0.77728,-1.33786 0.66184,-0.66184 0.93569,-0.77728 1.84392,-0.77728 0.58666,0 1.26801,0.10776 1.51412,0.23948 1.4445,0.77307 12.11728,1.13436 33.47137,1.13305 22.98485,-10e-4 33.56743,-0.39403 35.10519,-1.3024 0.79222,-0.46799 1.58207,-0.26856 2.4757,0.62508 0.8839,0.88389 1.26073,2.14252 0.87597,2.92578 -0.7771,1.58194 -3.03969,2.01289 -4.66277,0.88809 -1.47312,-1.02087 -5.92272,-1.17812 -33.33687,-1.17812 -26.8679,0 -31.8622,0.16686 -33.26114,1.11129 -1.22018,0.82375 -1.6295,0.86859 -2.75209,0.30147 z"
       id="path468"
       transform="scale(0.26458333)" /><path
       style="fill:#ffffff;fill-opacity:0.7;stroke:#ffffff;stroke-width:0.228972;stroke-opacity:0.7"
       d="m 591.16187,771.98113 c -1.3253,-0.82251 -1.70406,-2.37116 -0.82822,-3.3864 0.96177,-1.11485 3.47104,-1.1981 4.594,-0.15241 0.77764,0.72413 3.32157,0.95572 13.06628,1.18948 8.43986,0.20246 10.89871,0.39631 11.40127,0.89887 0.56856,0.56857 -1.19237,0.74177 -6.71472,0.66047 -3.08055,-0.0453 -8.17288,-0.0793 -11.3163,-0.0756 l -5.7153,0.007 -1.11996,0.62179 c -1.27455,0.70762 -2.47273,0.79191 -3.36705,0.23687 z"
       id="path470"
       transform="scale(0.26458333)" /><path
       style="fill:#ffffff;fill-opacity:0.7;stroke:#ffffff;stroke-width:0.228972;stroke-opacity:0.7"
       d="m 572.65578,780.61367 c -0.75884,-0.75884 -0.8721,-1.70361 -0.3299,-2.7521 0.93347,-1.80514 2.90018,-2.16856 3.67081,-0.67832 0.68953,1.3334 0.12327,3.03743 -1.24436,3.74465 -0.96881,0.501 -1.33642,0.4459 -2.09655,-0.31423 z"
       id="path472"
       transform="scale(0.26458333)" /><path
       style="fill:#ffffff;fill-opacity:0.7;stroke:#ffffff;stroke-width:0.228972;stroke-opacity:0.7"
       d="m 558.70821,738.46703 c -1.10345,-0.8472 -1.21476,-2.62258 -0.22639,-3.61095 0.75482,-0.75482 1.70304,-0.8724 2.7344,-0.33906 1.37189,0.70944 5.34383,0.922 17.28675,0.92512 8.49767,0.002 12.24814,-0.0797 13.83103,-0.302 11.66786,-1.63885 19.15258,-6.07378 22.50331,-13.33388 2.15469,-4.66863 2.45928,-10.62509 0.79803,-15.60588 -2.08135,-6.2403 -6.93768,-10.81939 -13.63519,-12.8568 -1.77983,-0.54143 -2.39676,-0.61225 -5.43682,-0.62412 -4.17202,-0.0163 -5.56987,0.29516 -9.14449,2.03745 -9.2257,4.49668 -13.76206,14.78247 -11.10654,25.18313 0.26185,1.02553 0.47608,2.17597 0.47608,2.55654 0,1.86489 -3.16665,1.82863 -4.32085,-0.0495 -1.47793,-2.40485 -1.72271,-10.71153 -0.48359,-16.41028 0.95109,-4.37404 4.61957,-9.55202 9.24538,-13.04966 2.33715,-1.76714 6.26968,-3.6713 9.18707,-4.44842 1.98891,-0.5298 2.71379,-0.60407 6.03263,-0.61817 3.25196,-0.0138 4.0537,0.0577 5.81429,0.51829 4.51994,1.18255 8.00217,3.12201 11.26862,6.27614 2.45988,2.37529 4.44962,5.16936 6.01453,8.44584 1.671,3.49858 1.89719,4.73855 1.73978,9.53743 -0.18005,5.48931 -0.82777,8.43081 -2.66804,12.11644 -2.113,4.23186 -4.61824,6.6417 -10.99099,10.57243 l -2.42423,1.49527 -10.94958,0.25816 c -21.10358,0.49756 -31.99147,0.95992 -33.17168,1.40863 -0.76772,0.29189 -1.93912,0.25133 -2.37351,-0.0822 z"
       id="path474"
       transform="scale(0.26458333)" /><path
       style="fill:#ffffff;fill-opacity:0.7;stroke:#ffffff;stroke-width:0.323815;stroke-opacity:0.7"
       d="m 642.88772,776.17775 c 0.10366,-7.24611 0.27033,-14.5205 0.37038,-16.16532 l 0.1819,-2.99059 h 2.66952 2.66952 l 0.21007,2.95943 c 0.35453,4.99468 0.24516,24.64944 -0.14735,26.47964 -0.52603,2.45279 -1.11214,2.89157 -3.86247,2.89157 h -2.28005 z"
       id="path476"
       transform="scale(0.26458333)" /><path
       style="fill:#ffffff;fill-opacity:0.7;stroke:#ffffff;stroke-width:0.323815;stroke-opacity:0.7"
       d="m 711.5917,782.69252 c -0.80326,-0.4323 -2.40363,-0.99044 -3.55637,-1.2403 -1.15274,-0.24987 -1.9504,-0.46875 -1.77258,-0.48641 2.55487,-0.25372 5.03927,-0.80933 5.90628,-1.32088 1.38448,-0.81686 2.80931,-0.81358 3.63125,0.008 0.87381,0.87381 0.81424,2.12491 -0.14695,3.08611 -0.99724,0.99723 -2.14623,0.98397 -4.06163,-0.0469 z"
       id="path478"
       transform="scale(0.26458333)" /><path
       style="fill:#ffffff;fill-opacity:0.7;stroke:#ffffff;stroke-width:0.323815;stroke-opacity:0.7"
       d="m 709.49581,759.79541 c -1.77819,-0.23451 -3.47642,-0.52929 -3.77385,-0.65505 -0.7858,-0.33227 -0.97987,-1.10123 -0.58211,-2.30647 0.30242,-0.91631 0.55435,-1.1026 1.8678,-1.38107 1.98719,-0.42131 15.91857,-0.84776 18.23598,-0.55822 1.99177,0.24885 2.67109,0.63893 2.99138,1.71773 0.30301,1.02057 -0.95119,2.17156 -3.10095,2.8458 -2.32936,0.73056 -11.20482,0.92199 -15.63825,0.33728 z m 15.49764,-1.71951 c 1.2725,-0.3769 1.40534,-0.97253 0.28651,-1.28461 -1.53366,-0.42779 -16.94049,-0.27266 -18.01912,0.18143 -1.30116,0.54777 -0.71556,1.03278 1.64465,1.36213 2.33203,0.32541 14.79215,0.12486 16.08796,-0.25895 z"
       id="path480"
       transform="scale(0.26458333)" /><path
       style="fill:#ffffff;fill-opacity:0.7;stroke:#ffffff;stroke-width:0.323815;stroke-opacity:0.7"
       d="m 739.91535,758.93688 c -1.08001,-1.28352 -1.13416,-2.96346 -0.11846,-3.67489 1.02615,-0.71874 1.96594,-0.6231 2.82101,0.28708 0.57319,0.61014 0.69137,0.99719 0.51825,1.69736 -0.21579,0.87277 -1.66678,2.68517 -2.14972,2.68517 -0.12874,0 -0.61073,-0.44762 -1.07108,-0.99472 z"
       id="path482"
       transform="scale(0.26458333)" /><path
       style="fill:#ffffff;fill-opacity:0.7;stroke:#ffffff;stroke-width:0.323815;stroke-opacity:0.7"
       d="m 708.74722,758.00605 c -4.39468,-0.69588 -1.18056,-1.14586 8.18464,-1.14586 7.79837,0 10.06935,0.24447 8.08266,0.87008 -1.28679,0.40521 -14.0802,0.6221 -16.2673,0.27578 z"
       id="path484"
       transform="scale(0.26458333)" /><path
       style="fill:#ffffff;fill-opacity:0.7;stroke:#ffffff;stroke-width:0.323815;stroke-opacity:0.7"
       d="m 736.22827,781.92334 c -4.35577,-0.671 -1.18028,-1.13919 7.69967,-1.13523 4.00091,0.002 7.996,0.12439 8.87797,0.27246 1.41442,0.23747 1.52884,0.31336 0.96992,0.64331 -0.75983,0.44857 -14.9114,0.62556 -17.54756,0.21946 z"
       id="path486"
       transform="scale(0.26458333)" /><path
       style="fill:#ffffff;fill-opacity:0.7;stroke:#ffffff;stroke-width:0.323815;stroke-opacity:0.7"
       d="m 768.28256,794.50453 c -0.88396,-0.56626 -1.86226,-0.69745 -7.11274,-0.95384 -3.3483,-0.16351 -9.10669,-0.30206 -12.79642,-0.30791 l -6.70861,-0.0106 v -2.26315 -2.26314 l 10.74994,-0.0106 c 11.69026,-0.0115 14.59761,-0.23012 15.9878,-1.20219 1.38671,-0.96963 2.49851,-1.11901 3.96409,-0.53261 1.90834,0.76357 2.92203,2.11228 2.92203,3.88773 0,1.80796 -0.6992,3.19726 -1.92925,3.83334 -1.36408,0.7054 -3.83378,0.61928 -5.07684,-0.17703 z m 5.00159,-1.33703 c 0.21339,-0.21339 0.38797,-1.00064 0.38797,-1.74945 0,-1.13316 -0.17252,-1.50665 -1.02876,-2.22713 -0.80912,-0.68082 -1.23962,-0.82348 -2.01634,-0.66813 -0.54316,0.10863 -1.16813,0.37807 -1.38881,0.59876 -0.22069,0.22068 -0.49013,0.84565 -0.59876,1.38881 -0.15535,0.77672 -0.0127,1.20722 0.66813,2.01634 0.72048,0.85624 1.09397,1.02876 2.22713,1.02876 0.74881,0 1.53606,-0.17458 1.74944,-0.38796 z m -15.67841,-0.92348 c 2.09932,-0.18417 4.2089,-0.48863 4.68794,-0.67658 l 0.87099,-0.34171 -0.80827,-0.31377 c -0.92989,-0.36097 -15.71922,-0.44605 -17.53937,-0.10089 -1.3467,0.25537 -1.63711,1.02069 -0.48496,1.27801 2.27177,0.50737 8.43619,0.57932 13.27367,0.15494 z"
       id="path488"
       transform="scale(0.26458333)" /><path
       style="fill:#ffffff;fill-opacity:0.7;stroke:#ffffff;stroke-width:0.323815;stroke-opacity:0.7"
       d="m 768.19314,794.31048 c -1.43323,-0.62439 -8.7204,-1.19161 -12.41881,-0.96666 -1.57522,0.0958 -5.39428,0.0873 -8.48679,-0.019 l -5.62275,-0.19321 v -2.1921 -2.1921 l 12.36647,-0.10684 12.36647,-0.10684 2.01056,-0.92173 c 2.34312,-1.07418 3.68783,-0.9909 5.25202,0.32527 1.16132,0.97719 1.59659,2.39398 1.27618,4.1539 -0.35239,1.93549 -1.50138,2.7639 -3.78802,2.73115 -1.01254,-0.0145 -2.34244,-0.24484 -2.95533,-0.51184 z m 5.41505,-2.61381 c 0.0857,-1.48881 -0.008,-1.79518 -0.76398,-2.49574 -0.68829,-0.63788 -1.12215,-0.7735 -2.15594,-0.67392 -1.60046,0.15415 -1.82076,0.36794 -2.04717,1.98661 -0.15091,1.07891 -0.0452,1.43517 0.64737,2.1825 0.73262,0.79051 1.02269,0.88189 2.52485,0.79541 l 1.69715,-0.0977 z m -14.72953,0.53874 c 1.62464,-0.19754 3.32636,-0.50657 3.7816,-0.68673 0.77896,-0.30828 0.78962,-0.34191 0.1811,-0.57094 -1.22423,-0.46075 -16.67462,-0.63946 -18.37561,-0.21254 -1.20126,0.3015 -1.02854,1.26213 0.2744,1.52612 1.72648,0.34981 11.10676,0.31272 14.13851,-0.0559 z"
       id="path490"
       transform="scale(0.26458333)" /><path
       style="fill:#ffffff;fill-opacity:0.7;stroke:#ffffff;stroke-width:0.323815;stroke-opacity:0.7"
       d="m 770.07732,792.90668 c -0.28786,-0.1682 -0.70525,-0.74487 -0.92752,-1.28149 -0.33994,-0.82068 -0.32236,-1.10047 0.11064,-1.76132 0.91061,-1.38977 2.56161,-1.34159 3.67396,0.10721 0.50935,0.6634 0.5251,2.37446 0.0265,2.87311 -0.45938,0.45938 -2.14186,0.49584 -2.88353,0.0625 z"
       id="path492"
       transform="scale(0.26458333)" /><path
       style="fill:#ffffff;fill-opacity:0.7;stroke:#ffffff;stroke-width:0.323815;stroke-opacity:0.7"
       d="m 746.51439,792.0424 c -1.65871,-0.17057 -2.68744,-0.43356 -2.48557,-0.63542 0.0974,-0.0974 1.75135,-0.30953 3.67534,-0.47128 3.93909,-0.33116 14.6707,-0.022 13.91507,0.40087 -1.13152,0.63323 -11.22439,1.10485 -15.10484,0.70583 z"
       id="path494"
       transform="scale(0.26458333)" /></g></svg>
